SplineFontDB: 3.2
FontName: Untitled2
FullName: Untitled2
FamilyName: Untitled2
Weight: Regular
Copyright: Copyright (c) 2023, Vortezz
UComments: "2023-3-1: Created with FontForge (http://fontforge.org)"
Version: 001.000
ItalicAngle: 0
UnderlinePosition: -102.4
UnderlineWidth: 51.2
Ascent: 819
Descent: 205
InvalidEm: 0
LayerCount: 2
Layer: 0 0 "Back" 1
Layer: 1 0 "Fore" 0
XUID: [1021 496 -73761616 14859541]
StyleMap: 0x0000
FSType: 0
OS2Version: 0
OS2_WeightWidthSlopeOnly: 0
OS2_UseTypoMetrics: 1
CreationTime: 1677627113
ModificationTime: 1731183436
OS2TypoAscent: 0
OS2TypoAOffset: 1
OS2TypoDescent: 0
OS2TypoDOffset: 1
OS2TypoLinegap: 92
OS2WinAscent: 0
OS2WinAOffset: 1
OS2WinDescent: 0
OS2WinDOffset: 1
HheadAscent: 0
HheadAOffset: 1
HheadDescent: 0
HheadDOffset: 1
MarkAttachClasses: 1
DEI: 91125
Encoding: UnicodeFull
UnicodeInterp: none
NameList: AGL For New Fonts
DisplaySize: -48
AntiAlias: 1
FitToEm: 0
WinInfo: 1862 38 13
BeginPrivate: 0
EndPrivate
BeginChars: 1114112 53

StartChar: uni080A
Encoding: 2058 2058 0
Width: 1024
Flags: HW
HStem: -205 89<364 466 635 883>
VStem: 466 166<-104 1 141 250> 594 37<250 280> 919 105<-84 106 233 334> 938 86<-48 86>
LayerCount: 2
Fore
SplineSet
924 819 m 2x88
 979 819 1024 774 1024 719 c 2
 1024 -105 l 2
 1024 -160 979 -205 924 -205 c 2
 100 -205 l 2
 45 -205 0 -160 0 -105 c 2
 0 719 l 2
 0 774 45 819 100 819 c 2
 924 819 l 2x88
594 250 m 1xa0
 594 333 l 1xa0
 236 333 l 1
 236 250 l 1
 364 250 l 1
 364 -116 l 1
 466 -116 l 1
 466 250 l 1xc0
 594 250 l 1xa0
924 -50 m 2
 924 -49 l 2
 933 -30 938 -9 938 13 c 0xc8
 938 14 938 13 938 14 c 0
 938 30 935 46 930 61 c 0
 925 75 916 87 906 97 c 0
 895 108 884 118 870 125 c 0
 855 134 839 141 822 148 c 2
 786 164 l 2
 777 168 768 174 760 180 c 0
 753 184 748 191 743 197 c 0
 739 203 737 209 737 216 c 0
 737 217 l 0
 737 217 l 0
 737 224 739 231 742 236 c 0
 746 242 751 246 757 250 c 0
 764 254 773 257 782 259 c 0
 792 261 801 262 811 262 c 0
 812 262 813 262 814 262 c 0
 818 262 822 263 826 263 c 0
 830 263 836 262 840 262 c 0
 850 261 859 260 868 257 c 0
 878 254 886 251 895 247 c 0
 903 243 912 238 919 233 c 1
 919 327 l 2
 903 333 886 337 869 340 c 0
 850 343 832 344 813 344 c 0
 811 344 809 344 807 344 c 0
 806 344 806 344 805 344 c 0
 783 344 761 342 740 337 c 0
 719 333 700 324 683 313 c 0
 667 303 654 288 645 272 c 0
 636 255 631 236 631 216 c 0xb0
 631 215 631 213 631 212 c 0
 631 211 631 210 631 209 c 0xc0
 631 181 642 157 658 137 c 0
 679 112 706 93 736 80 c 2
 774 64 l 2
 785 59 795 54 804 47 c 0
 812 42 819 36 824 28 c 0
 829 21 832 13 832 4 c 0
 832 -3 830 -9 827 -14 c 0
 823 -20 819 -24 813 -28 c 0
 806 -32 797 -36 789 -38 c 0
 779 -40 769 -42 758 -42 c 0
 757 -42 756 -42 755 -42 c 0
 754 -42 753 -41 752 -41 c 0
 730 -41 710 -37 691 -30 c 0
 670 -23 651 -12 634 1 c 2
 634 5 l 1
 630 5 l 1
 634 1 l 1
 634 -96 l 2
 652 -104 671 -111 691 -115 c 0
 714 -119 737 -121 761 -121 c 0
 762 -121 l 0
 785 -121 807 -118 829 -114 c 0
 849 -110 869 -103 886 -92 c 0
 903 -82 916 -68 924 -50 c 2
EndSplineSet
Validated: 5
EndChar

StartChar: uni07BE
Encoding: 1982 1982 1
Width: 1024
Flags: HW
LayerCount: 2
Fore
SplineSet
512 807 m 0
 795 807 1024 578 1024 295 c 0
 1024 69 877 -123 674 -191 c 0
 671 -192 667 -192 664 -192 c 0
 646 -192 639 -179 639 -167 c 0
 639 -150 639 -94 639 -26 c 0
 639 22 623 53 605 69 c 1
 719 82 838 124 838 321 c 0
 838 377 819 423 786 459 c 0
 789 467 796 488 796 518 c 0
 796 539 793 565 781 594 c 2
 781 594 777 595 769 595 c 0
 751 595 709 588 640 542 c 0
 599 553 556 559 512 559 c 0
 468 559 425 553 384 542 c 0
 315 588 273 595 255 595 c 0
 247 595 243 594 243 594 c 2
 231 565 228 539 228 518 c 0
 228 488 235 467 238 459 c 0
 205 423 185 377 185 321 c 0
 185 125 305 81 419 68 c 1
 404 55 391 33 386 -0 c 0
 373 -6 351 -14 327 -14 c 0
 297 -14 263 -1 237 42 c 2
 237 42 210 91 159 95 c 2
 159 95 109 96 155 64 c 2
 155 64 189 48 212 -11 c 2
 212 -11 234 -86 333 -86 c 0
 348 -86 365 -84 384 -80 c 1
 384 -123 385 -155 385 -167 c 0
 385 -179 378 -192 360 -192 c 0
 357 -192 353 -192 350 -191 c 0
 147 -123 0 69 0 295 c 0
 0 578 229 807 512 807 c 0
EndSplineSet
Validated: 1
EndChar

StartChar: uni07C2
Encoding: 1986 1986 2
Width: 1024
Flags: HW
LayerCount: 2
Fore
SplineSet
657 704 m 0
 730 690 801 667 866 635 c 0
 965 493 1024 320 1024 133 c 0
 1024 103 1022 73 1019 43 c 0
 942 -15 855 -61 761 -90 c 0
 740 -61 722 -31 706 1 c 1
 736 13 765 27 793 44 c 1
 786 49 779 55 772 61 c 0
 694 23 604 2 512 2 c 0
 420 2 332 23 254 61 c 0
 247 55 241 49 233 44 c 1
 260 27 289 13 320 2 c 1
 303 -29 285 -59 264 -87 c 0
 170 -58 81 -13 4 45 c 0
 1 74 1 104 1 134 c 0
 1 321 59 495 158 638 c 0
 224 669 295 691 369 704 c 0
 379 686 388 667 396 648 c 0
 434 654 472 657 512 657 c 0
 552 657 592 654 630 648 c 0
 638 667 647 686 657 704 c 0
343 165 m 0
 394 168 435 211 435 263 c 0
 435 264 435 266 435 267 c 0
 435 268 435 270 435 271 c 0
 435 323 394 366 343 369 c 0
 292 366 251 323 251 271 c 0
 251 270 251 268 251 267 c 0
 251 266 251 265 251 264 c 0
 251 212 292 169 343 165 c 0
683 165 m 0
 734 168 775 211 775 263 c 0
 775 264 775 266 775 267 c 0
 775 268 775 270 775 271 c 0
 775 323 734 366 683 369 c 0
 632 366 591 323 591 271 c 0
 591 270 591 268 591 267 c 0
 591 266 591 265 591 264 c 0
 591 212 632 169 683 165 c 0
EndSplineSet
Validated: 1
EndChar

StartChar: uni07BF
Encoding: 1983 1983 3
Width: 1024
Flags: HW
LayerCount: 2
Fore
SplineSet
919 516 m 0
 920 507 919 498 919 489 c 0
 919 212 708 -109 322 -109 c 0
 203 -109 93 -74 -0 -14 c 1
 17 -16 33 -17 51 -17 c 0
 52 -17 l 0
 150 -17 240 17 311 73 c 1
 219 75 142 135 115 218 c 1
 128 216 141 215 155 215 c 0
 174 215 192 217 210 222 c 1
 114 241 42 326 42 428 c 0
 42 428 l 2
 42 431 l 1
 70 415 102 405 136 404 c 1
 79 442 43 506 43 579 c 0
 43 579 l 0
 43 618 53 654 71 685 c 1
 174 558 330 474 504 465 c 1
 501 481 499 497 499 513 c 2
 499 513 l 2
 499 629 593 723 709 723 c 2
 709 723 l 2
 769 723 824 698 862 657 c 0
 910 666 955 683 995 707 c 1
 979 658 946 618 903 592 c 1
 945 597 986 608 1024 624 c 1
 995 582 960 546 919 516 c 0
EndSplineSet
Validated: 5
EndChar

StartChar: uni07C0
Encoding: 1984 1984 4
Width: 1024
Flags: HW
LayerCount: 2
Fore
SplineSet
0 695 m 0
 0 763 55 818 123 818 c 0
 191 818 246 763 246 695 c 0
 246 627 191 572 123 572 c 0
 55 572 0 627 0 695 c 0
362 479 m 1
 362 479 l 1
 566 479 l 1
 566 386 l 1
 569 386 l 2
 597 440 666 496 769 496 c 0
 984 496 1024 355 1024 171 c 2
 1024 -204 l 1
 812 -204 l 1
 812 128 l 2
 812 207 811 309 702 309 c 0
 592 309 574 223 574 134 c 2
 574 -204 l 1
 362 -204 l 1
 362 479 l 1
17 479 m 1
 229 479 l 1
 229 -204 l 1
 17 -204 l 1
 17 479 l 1
EndSplineSet
Validated: 5
EndChar

StartChar: uni07C1
Encoding: 1985 1985 5
Width: 1024
Flags: HW
LayerCount: 2
Fore
SplineSet
135 819 m 1
 243 819 l 1
 243 658 l 1
 135 658 l 1
 135 819 l 1
350 819 m 1
 458 819 l 1
 458 658 l 1
 350 658 l 1
 350 819 l 1
566 819 m 1
 674 819 l 1
 674 658 l 1
 566 658 l 1
 566 819 l 1
889 442 m 2
 948 442 997 393 997 334 c 2
 997 65 l 2
 997 6 948 -43 889 -43 c 2
 781 -43 l 1
 781 -132 709 -205 620 -205 c 2
 189 -205 l 2
 100 -205 27 -132 27 -43 c 2
 27 496 l 2
 27 526 51 550 81 550 c 2
 728 550 l 2
 758 550 781 526 781 496 c 2
 781 442 l 1
 889 442 l 2
781 65 m 1
 889 65 l 1
 889 334 l 1
 781 334 l 1
 781 65 l 1
EndSplineSet
Validated: 1
EndChar

StartChar: uni080B
Encoding: 2059 2059 6
Width: 1024
Flags: HW
LayerCount: 2
Fore
SplineSet
0 819 m 1
 1024 819 l 1
 1024 -205 l 1
 0 -205 l 1
 0 819 l 1
940 39 m 1
 933 86 902 125 812 162 c 0
 781 177 745 187 735 211 c 0
 731 225 730 233 733 241 c 0
 738 262 758 272 778 272 c 0
 785 272 792 271 798 269 c 0
 815 264 830 251 840 230 c 1
 884 259 883 259 914 278 c 1
 902 296 898 304 890 312 c 0
 864 341 829 356 774 356 c 0
 773 356 771 356 769 356 c 2
 739 352 l 2
 710 345 683 329 666 309 c 0
 646 286 636 257 636 227 c 0
 636 184 655 141 690 118 c 0
 748 74 833 65 844 24 c 0
 845 19 845 15 845 11 c 0
 845 -23 814 -37 778 -37 c 0
 772 -37 766 -37 760 -36 c 0
 725 -28 706 -11 685 21 c 2
 607 -24 l 2
 616 -44 627 -53 642 -71 c 0
 674 -104 728 -121 781 -121 c 0
 849 -121 916 -92 935 -28 c 0
 936 -25 941 -11 941 12 c 0
 941 21 940 31 938 42 c 1
 940 39 l 1
557 349 m 1
 461 349 l 1
 461 266 461 184 461 101 c 0
 461 80 461 59 461 42 c 0
 461 15 460 -6 455 -15 c 0
 446 -33 428 -39 412 -39 c 0
 402 -39 394 -37 388 -35 c 0
 371 -27 362 -16 352 1 c 0
 349 5 348 10 347 10 c 2
 269 -38 l 2
 282 -65 301 -88 326 -103 c 0
 350 -118 380 -125 413 -125 c 0
 429 -125 445 -124 462 -120 c 0
 495 -110 525 -91 540 -60 c 0
 555 -32 557 -1 557 33 c 0
 557 49 557 65 557 82 c 0
 557 170 557 258 557 346 c 2
 557 349 l 1
EndSplineSet
Validated: 1
EndChar

StartChar: uni080C
Encoding: 2060 2060 7
Width: 1024
Flags: HW
LayerCount: 2
Fore
SplineSet
379 27 m 2
 379 27 367 20 367 12 c 0
 367 6 375 -1 406 -5 c 0
 433 -9 459 -11 487 -11 c 0
 532 -11 577 -6 619 4 c 0
 637 -7 655 -16 675 -24 c 1
 616 -49 552 -58 495 -58 c 0
 402 -58 329 -33 329 -6 c 0
 329 5 344 17 379 27 c 2
651 113 m 0
 663 102 677 93 693 88 c 1
 617 66 538 57 471 57 c 0
 372 57 299 77 299 101 c 0
 299 113 315 126 354 139 c 1
 354 139 340 129 340 118 c 0
 340 111 348 103 377 100 c 0
 409 96 441 94 474 94 c 0
 535 94 594 101 651 113 c 0
744 610 m 1
 613 534 572 492 572 453 c 0
 572 426 592 400 616 367 c 0
 627 352 631 337 631 324 c 0
 631 264 548 221 548 221 c 1
 566 235 578 256 578 281 c 0
 578 299 572 316 561 329 c 0
 529 366 516 399 516 429 c 0
 516 553 744 610 744 610 c 1
826 -56 m 2
 839 -62 846 -69 846 -76 c 0
 846 -111 690 -156 469 -156 c 0
 383 -156 286 -149 184 -132 c 0
 147 -126 133 -116 133 -105 c 0
 133 -78 220 -45 270 -45 c 0
 282 -45 291 -47 297 -51 c 1
 296 -51 295 -51 294 -51 c 0
 283 -51 272 -53 262 -56 c 0
 247 -60 200 -74 200 -88 c 0
 200 -91 203 -95 211 -98 c 0
 259 -119 363 -129 473 -129 c 0
 599 -129 732 -117 794 -98 c 0
 825 -89 833 -78 833 -70 c 0
 833 -62 826 -56 826 -56 c 2
685 193 m 1
 685 193 l 1
 612 174 513 165 424 165 c 0
 312 165 217 179 217 201 c 0
 217 207 223 213 236 219 c 0
 283 243 338 258 395 258 c 0
 396 258 397 257 398 257 c 1
 398 257 292 231 292 211 c 0
 292 205 303 199 333 195 c 0
 369 192 403 191 440 191 c 0
 487 191 533 194 579 198 c 0
 655 205 732 218 732 218 c 1
 716 211 700 202 685 193 c 1
732 69 m 1
 732 69 l 1
 819 115 848 159 848 193 c 0
 848 229 815 253 785 253 c 0
 781 253 777 253 773 252 c 0
 758 248 751 246 751 246 c 1
 755 252 761 256 768 259 c 0
 781 264 795 266 807 266 c 0
 855 266 890 234 890 193 c 0
 890 149 847 95 728 64 c 1
 730 65 731 67 732 69 c 1
513 257 m 1
 439 325 379 388 379 446 c 0
 379 462 384 478 394 494 c 0
 455 589 621 640 621 773 c 0
 621 787 619 803 615 819 c 1
 615 819 642 792 642 744 c 0
 642 697 616 630 513 549 c 0
 451 500 430 459 430 422 c 0
 430 360 489 310 513 257 c 1
738 -167 m 0
 877 -140 891 -108 891 -108 c 1
 885 -180 692 -205 521 -205 c 0
 485 -205 449 -204 417 -202 c 0
 295 -194 272 -175 272 -175 c 1
 341 -185 409 -189 481 -189 c 0
 569 -189 654 -181 738 -167 c 0
EndSplineSet
Validated: 1
EndChar

StartChar: uni080D
Encoding: 2061 2061 8
Width: 1024
Flags: HW
LayerCount: 2
Fore
SplineSet
64 819 m 1
 960 819 l 1
 878 -101 l 1
 511 -205 l 1
 146 -101 l 1
 64 819 l 1
364 403 m 1
 354 519 l 1
 783 519 l 1
 793 631 l 1
 231 631 l 1
 261 289 l 1
 650 289 l 1
 636 143 l 1
 512 109 l 1
 386 143 l 1
 378 233 l 1
 267 233 l 1
 281 55 l 1
 512 -6 l 1
 741 55 l 1
 773 403 l 1
 364 403 l 1
 364 403 l 1
EndSplineSet
Validated: 5
EndChar

StartChar: uni080E
Encoding: 2062 2062 9
Width: 1024
Flags: HW
LayerCount: 2
Fore
SplineSet
64 819 m 1
 960 819 l 1
 879 -101 l 1
 511 -205 l 1
 146 -101 l 1
 64 819 l 1
793 631 m 1
 231 631 l 1
 240 519 l 1
 672 519 l 1
 661 403 l 1
 378 403 l 1
 388 293 l 1
 652 293 l 1
 636 143 l 1
 512 109 l 1
 386 143 l 1
 378 233 l 1
 267 233 l 1
 279 69 l 1
 512 -4 l 1
 741 62 l 1
 793 631 l 1
EndSplineSet
Validated: 1
EndChar

StartChar: uni080F
Encoding: 2063 2063 10
Width: 1024
Flags: HW
LayerCount: 2
Fore
SplineSet
375 322 m 2
 236 322 232 195 232 179 c 0
 232 178 232 177 232 177 c 1
 232 56 l 1
 145 56 l 1
 145 56 144 56 143 56 c 0
 125 56 -0 65 0 308 c 0
 0 538 128 552 159 552 c 0
 164 552 166 552 166 552 c 1
 513 552 l 1
 513 587 l 1
 265 587 l 1
 265 704 l 1
 265 704 265 705 265 708 c 0
 265 728 278 816 508 816 c 0
 744 816 759 715 759 688 c 0
 759 683 759 681 759 681 c 1
 759 456 l 2
 759 324 629 322 621 322 c 0
 621 322 l 1
 375 322 l 2
372 649 m 0
 397 649 416 668 416 693 c 0
 416 718 397 738 372 738 c 0
 347 738 327 718 327 693 c 0
 327 668 347 649 372 649 c 0
879 559 m 1
 879 559 880 559 881 559 c 0
 897 559 1024 551 1024 306 c 0
 1024 76 896 62 865 62 c 0
 860 62 858 62 858 62 c 1
 511 62 l 1
 511 27 l 1
 759 27 l 1
 759 -89 l 1
 759 -89 759 -91 759 -93 c 0
 759 -114 746 -202 516 -202 c 0
 280 -202 265 -100 265 -73 c 0
 265 -68 265 -66 265 -66 c 1
 265 158 l 2
 265 290 395 292 403 292 c 0
 403 292 l 1
 649 292 l 2
 788 292 792 419 792 435 c 0
 792 436 792 437 792 437 c 1
 792 559 l 1
 879 559 l 1
652 -34 m 0
 627 -34 608 -54 608 -79 c 0
 608 -104 627 -124 652 -124 c 0
 677 -124 697 -104 697 -79 c 0
 697 -54 677 -34 652 -34 c 0
EndSplineSet
Validated: 5
EndChar

StartChar: uni0810
Encoding: 2064 2064 11
Width: 1024
Flags: HW
LayerCount: 2
Fore
SplineSet
1017 320 m 2
 1021 317 1024 312 1024 307 c 0
 1024 302 1021 298 1017 295 c 2
 974 268 l 2
 974 264 973 259 973 255 c 2
 1010 221 l 2
 1014 218 1015 212 1014 207 c 0
 1013 202 1010 198 1005 196 c 2
 958 179 l 2
 957 175 955 170 954 166 c 2
 983 126 l 2
 986 122 987 116 985 111 c 0
 983 106 979 103 974 102 c 2
 924 94 l 2
 922 90 920 87 918 83 c 2
 939 37 l 2
 941 32 941 27 938 23 c 0
 935 19 930 16 925 16 c 2
 874 18 l 2
 871 15 869 11 866 8 c 2
 878 -41 l 2
 879 -46 878 -51 874 -55 c 0
 870 -59 865 -60 860 -59 c 2
 811 -47 l 2
 808 -50 804 -52 801 -55 c 2
 803 -106 l 2
 803 -111 800 -116 796 -119 c 0
 792 -122 787 -122 782 -120 c 2
 736 -99 l 2
 732 -101 729 -103 725 -105 c 2
 717 -155 l 2
 716 -160 713 -164 708 -166 c 0
 703 -168 698 -167 694 -164 c 2
 653 -135 l 2
 649 -136 645 -137 641 -138 c 2
 623 -186 l 2
 621 -191 617 -194 612 -195 c 0
 607 -196 601 -195 598 -191 c 2
 564 -154 l 2
 560 -154 555 -155 551 -155 c 2
 525 -198 l 2
 522 -202 517 -205 512 -205 c 0
 507 -205 502 -202 499 -198 c 2
 473 -155 l 2
 469 -155 464 -154 460 -154 c 2
 426 -191 l 2
 423 -195 417 -196 412 -195 c 0
 407 -194 403 -191 401 -186 c 2
 383 -138 l 2
 379 -137 375 -136 371 -135 c 2
 330 -164 l 2
 326 -167 321 -168 316 -166 c 0
 311 -164 308 -160 307 -155 c 2
 299 -105 l 2
 295 -103 292 -101 288 -99 c 2
 242 -120 l 2
 237 -122 232 -122 228 -119 c 0
 224 -116 221 -111 221 -106 c 2
 223 -55 l 2
 220 -52 216 -50 213 -47 c 2
 164 -59 l 2
 159 -60 154 -59 150 -55 c 0
 146 -51 145 -46 146 -41 c 2
 158 8 l 2
 155 11 153 15 150 18 c 2
 99 16 l 2
 94 16 89 19 86 23 c 0
 83 27 83 32 85 37 c 2
 106 83 l 2
 104 87 102 90 100 94 c 2
 50 102 l 2
 45 103 41 106 39 111 c 0
 37 116 38 122 41 126 c 2
 70 166 l 2
 69 170 67 175 66 179 c 2
 19 196 l 2
 14 198 11 202 10 207 c 0
 9 212 10 218 14 221 c 2
 51 255 l 2
 51 259 50 264 50 268 c 2
 7 295 l 2
 3 298 0 302 0 307 c 0
 0 312 3 317 7 320 c 2
 50 346 l 2
 50 350 51 355 51 359 c 2
 14 393 l 2
 10 396 9 402 10 407 c 0
 11 412 14 416 19 418 c 2
 66 436 l 2
 67 440 69 444 70 448 c 2
 41 489 l 2
 38 493 37 498 39 503 c 0
 41 508 45 511 50 512 c 2
 100 520 l 2
 102 524 104 527 106 531 c 2
 85 577 l 2
 83 582 83 588 86 592 c 0
 89 596 94 598 99 598 c 2
 150 596 l 2
 153 599 155 603 158 606 c 2
 146 655 l 2
 145 660 146 665 150 669 c 0
 154 673 159 674 164 673 c 2
 213 662 l 2
 216 665 220 667 223 670 c 2
 221 720 l 2
 221 725 224 730 228 733 c 0
 232 736 237 736 242 734 c 2
 288 713 l 2
 292 715 295 717 299 719 c 2
 307 769 l 2
 308 774 311 778 316 780 c 0
 321 782 326 782 330 779 c 2
 371 749 l 2
 375 750 380 752 384 753 c 2
 401 800 l 2
 403 805 407 808 412 809 c 0
 417 810 422 809 426 805 c 2
 460 768 l 2
 464 768 469 769 473 769 c 2
 499 812 l 2
 502 816 507 819 512 819 c 0
 517 819 522 816 525 812 c 2
 551 769 l 2
 555 769 560 768 564 768 c 2
 598 805 l 2
 601 809 607 810 612 809 c 0
 617 808 621 805 623 800 c 2
 641 753 l 2
 645 752 649 750 653 749 c 2
 694 779 l 2
 698 782 703 782 708 780 c 0
 713 778 716 774 717 769 c 2
 725 719 l 2
 729 717 732 715 736 713 c 2
 782 734 l 2
 787 736 793 736 797 733 c 0
 801 730 803 725 803 720 c 2
 801 670 l 2
 804 667 808 665 811 662 c 2
 860 673 l 2
 865 674 870 673 874 669 c 0
 878 665 879 660 878 655 c 2
 866 606 l 2
 869 603 871 599 874 596 c 2
 925 598 l 2
 930 598 935 596 938 592 c 0
 941 588 941 582 939 577 c 2
 918 531 l 2
 920 527 922 524 924 520 c 2
 974 512 l 2
 979 511 983 508 985 503 c 0
 987 498 986 493 983 489 c 2
 954 448 l 2
 955 444 957 440 958 436 c 2
 1005 418 l 2
 1010 416 1013 412 1014 407 c 0
 1015 402 1014 396 1010 393 c 2
 973 359 l 2
 973 355 974 350 974 346 c 2
 1017 320 l 2
729 -37 m 0
 731 -37 733 -37 734 -37 c 0
 749 -37 762 -27 765 -13 c 0
 765 -11 766 -9 766 -7 c 0
 766 7 756 19 742 23 c 0
 740 23 738 23 737 23 c 0
 723 23 710 13 707 -1 c 0
 707 -3 706 -5 706 -7 c 0
 706 -21 715 -34 729 -37 c 0
715 62 m 2
 779 48 l 2
 791 61 803 75 814 89 c 1
 812 89 810 88 808 88 c 2
 656 88 l 2
 631 88 608 123 602 141 c 0
 596 157 587 206 583 221 c 0
 571 270 533 273 524 273 c 2
 427 273 l 1
 427 204 l 1
 517 204 l 2
 520 204 522 203 522 200 c 2
 522 92 l 2
 522 89 520 88 517 88 c 2
 211 88 l 1
 221 75 231 62 243 50 c 2
 306 63 l 2
 313 65 321 64 327 60 c 0
 333 56 337 49 339 42 c 2
 354 -29 l 2
 402 -51 456 -64 512 -64 c 0
 565 -64 617 -53 666 -31 c 2
 682 41 l 2
 684 48 688 54 694 58 c 0
 700 62 708 64 715 62 c 2
292 -35 m 0
 306 -32 316 -19 316 -6 c 0
 316 -3 316 -1 315 1 c 0
 312 15 299 25 286 25 c 0
 283 25 281 25 279 24 c 0
 265 20 255 8 255 -6 c 0
 255 -8 256 -10 256 -12 c 0
 259 -26 272 -36 286 -36 c 0
 288 -36 290 -35 292 -35 c 0
175 435 m 0
 171 445 162 452 151 453 c 0
 140 454 129 450 123 441 c 0
 117 432 116 421 120 411 c 0
 125 400 137 392 148 392 c 0
 152 392 156 393 160 395 c 0
 171 400 178 411 178 423 c 0
 178 427 177 431 175 435 c 0
140 351 m 2
 139 338 138 324 138 311 c 0
 138 276 143 241 152 208 c 2
 259 208 l 1
 259 447 l 1
 206 447 l 1
 219 416 l 2
 221 412 221 409 221 405 c 0
 221 394 215 384 205 380 c 2
 140 351 l 2
427 374 m 1
 544 374 l 2
 569 374 600 382 600 407 c 0
 600 437 561 444 554 444 c 2
 427 444 l 1
 427 374 l 1
886 310 m 0
 886 323 886 336 885 348 c 2
 815 378 l 2
 805 382 799 393 799 404 c 0
 799 407 799 411 801 415 c 2
 837 496 l 1
 782 592 689 659 581 679 c 1
 529 628 l 2
 524 623 517 620 510 620 c 0
 502 620 495 623 489 629 c 2
 443 678 l 1
 362 663 288 621 233 560 c 1
 630 560 l 2
 640 560 678 556 711 534 c 0
 735 518 770 486 770 435 c 0
 770 388 731 353 693 329 c 1
 723 305 742 291 754 226 c 0
 757 215 775 206 793 206 c 0
 795 206 796 206 798 206 c 0
 819 208 842 217 842 259 c 2
 842 276 l 2
 842 280 843 283 847 283 c 2
 885 283 l 2
 886 292 886 301 886 310 c 0
489 720 m 0
 483 714 479 706 479 698 c 0
 479 690 482 683 488 677 c 0
 494 671 502 668 510 668 c 0
 518 668 525 670 531 676 c 0
 537 682 541 689 541 697 c 0
 541 705 538 713 532 719 c 0
 526 725 519 729 511 729 c 0
 503 729 495 726 489 720 c 0
845 434 m 0
 843 430 842 426 842 422 c 0
 842 411 850 399 861 394 c 0
 865 392 869 391 873 391 c 0
 885 391 896 398 901 409 c 0
 903 413 904 417 904 421 c 0
 904 432 896 444 885 449 c 0
 881 451 877 452 873 452 c 0
 861 452 850 445 845 434 c 0
EndSplineSet
Validated: 1
EndChar

StartChar: uni0811
Encoding: 2065 2065 12
Width: 1024
Flags: HW
LayerCount: 2
Fore
SplineSet
609 819 m 1
 926 819 l 1
 394 287 l 1
 255 149 l 1
 97 307 l 1
 609 819 l 1
651 71 m 1
 926 -205 l 1
 615 -205 l 2
 609 -206 606 -201 602 -197 c 2
 492 -87 l 1
 334 72 l 1
 492 229 l 1
 606 343 l 2
 610 347 617 347 623 347 c 2
 927 347 l 1
 651 71 l 1
EndSplineSet
Validated: 1
EndChar

StartChar: uni0812
Encoding: 2066 2066 13
Width: 1024
Flags: HW
LayerCount: 2
Fore
SplineSet
845 435 m 0
 857 432 869 430 882 430 c 0
 943 430 996 463 1024 512 c 1
 1006 396 906 307 785 307 c 0
 779 307 774 307 768 307 c 0
 766 307 765 307 763 307 c 0
 670 307 587 350 533 417 c 0
 508 448 474 472 435 486 c 0
 423 489 411 490 398 490 c 0
 338 490 285 458 256 410 c 1
 274 526 374 615 495 615 c 0
 501 615 506 614 512 614 c 0
 513 614 515 615 516 615 c 0
 609 615 693 571 747 503 c 0
 772 472 806 448 845 435 c 0
179 180 m 0
 167 183 155 184 142 184 c 0
 81 184 28 151 0 102 c 1
 18 218 118 308 239 308 c 0
 245 308 250 307 256 307 c 0
 258 307 259 307 261 307 c 0
 354 307 437 265 491 198 c 0
 516 167 550 143 589 129 c 0
 601 126 613 124 626 124 c 0
 686 124 739 157 768 205 c 1
 750 89 650 -1 529 -1 c 0
 523 -1 518 0 512 0 c 0
 511 0 509 0 508 -0 c 0
 415 0 331 43 277 111 c 0
 252 142 218 167 179 180 c 0
EndSplineSet
Validated: 1
EndChar

StartChar: uni0813
Encoding: 2067 2067 14
Width: 1024
Flags: HW
LayerCount: 2
Fore
SplineSet
421 307 m 0
 421 357 462 398 512 398 c 0
 562 398 603 357 603 307 c 0
 603 257 562 216 512 216 c 0
 462 216 421 257 421 307 c 0
256 126 m 1
 236 131 l 2
 86 169 0 233 0 307 c 0
 0 381 86 446 236 484 c 2
 256 489 l 1
 262 469 l 2
 277 417 297 364 320 316 c 2
 325 307 l 1
 320 298 l 2
 296 249 277 198 262 146 c 2
 256 126 l 1
227 437 m 0
 113 405 43 356 43 307 c 0
 43 258 113 209 227 177 c 0
 241 221 257 265 277 307 c 0
 258 349 241 393 227 437 c 0
768 126 m 1
 762 146 l 2
 747 198 727 249 704 298 c 2
 699 307 l 1
 704 317 l 2
 728 366 747 417 762 469 c 2
 768 489 l 1
 788 484 l 2
 938 446 1024 381 1024 307 c 0
 1024 233 938 169 788 131 c 2
 768 126 l 1
747 307 m 0
 767 263 784 219 797 177 c 0
 911 209 981 258 981 307 c 0
 981 356 911 405 797 437 c 0
 783 393 766 349 747 307 c 0
227 438 m 1
 221 458 l 2
 205 516 196 568 196 611 c 0
 196 679 216 727 256 750 c 0
 271 759 288 763 306 763 c 0
 367 763 446 718 527 634 c 2
 542 619 l 1
 527 604 l 2
 489 565 455 523 424 478 c 2
 418 469 l 1
 408 469 l 2
 353 465 299 456 247 443 c 2
 227 438 l 1
307 720 m 0
 296 720 286 718 277 713 c 0
 252 699 239 663 239 612 c 0
 239 577 245 536 257 489 c 0
 303 499 349 506 395 510 c 0
 422 548 450 585 482 619 c 0
 415 684 352 720 307 720 c 0
717 -148 m 0
 656 -148 578 -102 497 -19 c 2
 482 -4 l 1
 497 10 l 2
 535 50 569 92 600 137 c 2
 606 145 l 1
 616 146 l 2
 671 150 725 159 777 172 c 2
 797 177 l 1
 803 157 l 2
 819 99 828 47 828 4 c 0
 828 -64 808 -112 768 -135 c 0
 753 -143 736 -148 718 -148 c 0
 717 -148 718 -148 717 -148 c 0
542 -4 m 0
 609 -69 672 -106 717 -106 c 0
 729 -106 739 -103 747 -98 c 0
 772 -84 785 -48 785 3 c 0
 785 38 779 79 767 126 c 0
 721 116 675 109 629 105 c 0
 602 67 574 30 542 -4 c 0
797 438 m 1
 777 443 l 2
 725 456 671 465 616 469 c 2
 606 470 l 1
 600 478 l 2
 569 523 535 565 497 604 c 2
 482 619 l 1
 497 634 l 2
 578 718 657 763 718 763 c 0
 736 763 753 759 768 750 c 0
 808 727 828 679 828 611 c 0
 828 568 819 516 803 458 c 2
 797 438 l 1
629 510 m 0
 678 506 724 499 767 489 c 0
 779 536 785 577 785 612 c 0
 785 663 772 699 747 713 c 0
 738 718 728 720 717 720 c 0
 672 720 608 684 542 619 c 0
 574 585 602 548 629 510 c 0
307 -148 m 0
 306 -148 l 0
 288 -148 271 -143 256 -135 c 0
 216 -112 196 -64 196 4 c 0
 196 47 205 99 221 157 c 2
 226 177 l 1
 247 172 l 2
 296 160 350 151 408 146 c 2
 418 145 l 1
 424 137 l 2
 455 92 489 49 527 10 c 2
 542 -4 l 1
 527 -19 l 2
 446 -102 368 -148 307 -148 c 0
257 126 m 0
 245 79 239 38 239 3 c 0
 239 -48 252 -84 277 -98 c 0
 286 -103 296 -105 307 -105 c 0
 351 -105 415 -69 482 -4 c 0
 450 30 422 67 395 105 c 0
 348 109 302 116 257 126 c 0
512 99 m 0
 477 99 441 101 405 104 c 2
 395 104 l 1
 389 113 l 2
 369 142 349 172 331 203 c 0
 313 234 297 266 282 298 c 2
 277 307 l 1
 282 317 l 2
 297 349 313 381 331 412 c 0
 349 442 369 472 389 502 c 2
 395 510 l 1
 405 511 l 2
 441 514 476 516 513 516 c 0
 550 516 583 514 619 511 c 2
 629 510 l 1
 635 502 l 2
 676 444 711 381 742 316 c 2
 747 307 l 1
 742 298 l 2
 711 233 676 171 635 113 c 2
 629 104 l 1
 619 104 l 2
 583 101 547 99 512 99 c 0
418 145 m 0
 450 142 481 141 512 141 c 0
 543 141 574 142 606 145 c 0
 641 196 672 251 699 307 c 0
 672 364 641 418 606 469 c 0
 575 471 543 473 511 473 c 0
 479 473 449 471 418 469 c 0
 383 418 352 364 325 307 c 0
 352 251 383 196 418 145 c 0
EndSplineSet
Validated: 5
EndChar

StartChar: uni0814
Encoding: 2068 2068 15
Width: 1024
Flags: HW
LayerCount: 2
Fore
SplineSet
922 717 m 2
 979 717 1024 671 1024 614 c 2
 1024 0 l 2
 1024 -57 979 -102 922 -102 c 2
 102 -102 l 2
 45 -102 0 -57 0 0 c 2
 0 614 l 2
 0 671 45 717 102 717 c 2
 922 717 l 2
226 117 m 1
 416 307 l 1
 226 497 l 1
 154 425 l 1
 271 307 l 1
 154 190 l 1
 226 117 l 1
870 102 m 1
 870 205 l 1
 512 205 l 1
 512 102 l 1
 870 102 l 1
EndSplineSet
Validated: 1
EndChar

StartChar: uni0815
Encoding: 2069 2069 16
Width: 1024
Flags: HW
LayerCount: 2
Fore
SplineSet
930 419 m 0
 933 419 937 419 940 419 c 0
 967 419 993 412 1014 398 c 2
 1024 389 l 1
 1020 378 l 2
 1013 361 1003 346 990 334 c 0
 962 307 923 290 881 290 c 0
 879 290 878 291 876 291 c 2
 866 291 l 2
 841 222 804 158 757 103 c 0
 725 66 688 34 646 8 c 0
 596 -20 540 -41 482 -51 c 0
 445 -57 408 -60 370 -60 c 0
 366 -60 362 -60 358 -60 c 0
 351 -60 344 -60 337 -60 c 0
 263 -60 194 -43 132 -12 c 0
 84 19 48 67 30 122 c 0
 11 174 0 231 0 290 c 0
 0 292 0 293 0 295 c 0
 0 313 14 327 32 327 c 2
 707 327 l 2
 733 328 758 335 781 345 c 1
 767 367 759 393 759 421 c 0
 759 434 761 446 764 458 c 0
 769 480 778 501 790 519 c 2
 800 533 l 1
 814 525 l 2
 852 501 879 461 887 415 c 1
 901 417 915 419 929 419 c 0
 930 419 l 0
185 443 m 1
 185 443 l 2
 189 443 193 439 193 435 c 2
 193 355 l 2
 193 351 189 347 185 347 c 2
 185 347 l 1
 95 347 l 1
 95 347 l 2
 91 347 87 351 87 355 c 2
 87 435 l 2
 87 439 91 443 95 443 c 2
 95 443 l 1
 185 443 l 1
310 443 m 2
 314 443 317 439 317 435 c 2
 317 355 l 2
 317 351 314 347 310 347 c 2
 219 347 l 1
 219 347 l 2
 215 347 211 351 211 355 c 2
 211 435 l 2
 211 439 215 443 219 443 c 2
 219 443 l 1
 310 443 l 2
436 443 m 2
 440 443 444 439 444 435 c 2
 444 355 l 2
 444 351 440 347 436 347 c 2
 346 347 l 2
 342 347 338 351 338 355 c 2
 338 435 l 2
 338 439 342 443 346 443 c 2
 436 443 l 2
471 443 m 2
 563 443 l 2
 567 443 571 439 571 435 c 2
 571 355 l 2
 571 351 567 347 563 347 c 2
 468 347 l 2
 464 347 461 351 461 355 c 2
 461 435 l 2
 461 436 l 0
 461 440 464 443 468 443 c 0
 469 443 470 443 471 443 c 2
219 559 m 2
 307 559 l 2
 312 559 315 556 315 551 c 2
 315 471 l 2
 315 471 316 470 316 469 c 0
 316 464 312 461 307 461 c 0
 307 461 l 2
 219 461 l 2
 215 461 211 465 211 469 c 2
 211 551 l 2
 211 555 215 559 219 559 c 2
346 559 m 2
 436 559 l 2
 440 559 444 555 444 551 c 2
 444 471 l 2
 444 466 441 463 436 463 c 2
 346 463 l 2
 342 463 338 466 338 470 c 2
 338 551 l 2
 338 555 342 559 346 559 c 2
471 559 m 2
 563 559 l 2
 567 559 571 555 571 551 c 2
 571 471 l 2
 571 470 571 470 571 469 c 0
 571 465 567 461 563 461 c 0
 563 461 l 2
 471 461 l 2
 470 461 470 461 469 461 c 0
 464 461 461 464 461 469 c 0
 461 470 461 470 461 471 c 2
 461 551 l 2
 461 551 l 0
 461 555 464 559 468 559 c 0
 469 559 470 559 471 559 c 2
463 667 m 2
 463 675 463 675 471 675 c 2
 561 675 l 2
 569 675 569 675 569 667 c 2
 569 586 l 2
 569 578 569 579 561 579 c 2
 471 579 l 2
 463 579 463 578 463 586 c 2
 463 667 l 2
596 443 m 2
 687 443 l 2
 691 443 695 439 695 435 c 2
 695 355 l 2
 695 351 691 347 687 347 c 2
 596 347 l 2
 592 347 589 351 589 355 c 2
 589 435 l 2
 589 439 592 443 596 443 c 2
EndSplineSet
Validated: 5
EndChar

StartChar: uni0816
Encoding: 2070 2070 17
Width: 1024
Flags: HW
LayerCount: 2
Fore
SplineSet
1005 353 m 1
 1017 341 1024 324 1024 306 c 0
 1024 288 1017 271 1005 259 c 2
 560 -186 l 2
 548 -198 531 -205 513 -205 c 0
 495 -205 478 -198 466 -186 c 2
 19 261 l 2
 6 274 0 291 0 308 c 0
 0 325 6 342 19 355 c 2
 326 661 l 1
 441 545 l 2
 438 536 435 525 435 515 c 0
 435 482 455 454 484 442 c 2
 484 161 l 2
 475 157 466 151 458 144 c 0
 444 129 435 110 435 88 c 0
 435 66 444 47 458 33 c 0
 472 18 492 10 514 10 c 0
 536 10 555 18 570 33 c 0
 584 47 592 67 592 88 c 0
 592 110 584 129 570 144 c 0
 563 150 556 155 549 158 c 2
 549 437 l 1
 655 331 l 2
 651 322 649 312 649 302 c 0
 649 280 658 260 672 246 c 0
 688 230 708 223 728 223 c 0
 748 223 768 230 783 246 c 0
 797 260 806 280 806 302 c 0
 806 345 771 380 728 380 c 0
 719 380 710 379 702 376 c 2
 589 489 l 2
 591 497 593 506 593 515 c 0
 593 558 558 593 514 593 c 0
 506 593 497 592 489 589 c 2
 372 707 l 1
 464 800 l 2
 476 812 493 819 511 819 c 0
 529 819 546 812 558 800 c 2
 1005 353 l 1
EndSplineSet
Validated: 1
EndChar

StartChar: uni0817
Encoding: 2071 2071 18
Width: 1024
Flags: HW
LayerCount: 2
Fore
SplineSet
512 819 m 0
 545 819 577 816 608 810 c 1
 608 403 l 1
 1015 403 l 1
 1021 372 1024 340 1024 307 c 0
 1024 274 1020 242 1014 211 c 1
 608 211 l 1
 608 -195 l 1
 577 -201 545 -205 512 -205 c 0
 479 -205 447 -201 416 -195 c 1
 416 211 l 1
 10 211 l 1
 4 242 0 274 0 307 c 0
 0 340 4 372 10 403 c 1
 416 403 l 1
 416 809 l 1
 447 815 479 819 512 819 c 0
672 793 m 1
 718 778 761 757 800 731 c 1
 672 603 l 1
 672 793 l 1
352 793 m 1
 352 603 l 1
 225 730 l 1
 264 756 307 778 352 793 c 1
826 711 m 1
 843 698 859 684 874 669 c 1
 672 467 l 1
 672 557 l 1
 826 711 l 1
151 668 m 1
 352 467 l 1
 262 467 l 1
 109 621 l 1
 122 638 136 653 151 668 c 1
936 595 m 1
 962 556 983 513 998 467 c 1
 808 467 l 1
 936 595 l 1
89 594 m 1
 216 467 l 1
 27 467 l 1
 42 512 63 555 89 594 c 1
27 147 m 1
 216 147 l 1
 89 20 l 1
 63 59 42 102 27 147 c 1
352 147 m 1
 352 57 l 1
 199 -96 l 1
 182 -83 166 -69 151 -54 c 1
 352 147 l 1
672 147 m 1
 762 147 l 1
 915 -6 l 1
 902 -23 888 -39 873 -54 c 1
 672 147 l 1
808 147 m 1
 997 147 l 1
 982 102 961 59 935 20 c 1
 808 147 l 1
352 11 m 1
 352 -178 l 1
 307 -163 264 -142 225 -116 c 1
 352 11 l 1
672 11 m 1
 799 -116 l 1
 760 -142 717 -163 672 -178 c 1
 672 11 l 1
EndSplineSet
Validated: 1
EndChar

StartChar: uni07E4
Encoding: 2020 2020 19
Width: 1024
Flags: H
LayerCount: 2
Fore
SplineSet
870 640 m 1
 1024 486 l 1
 512 -26 l 1
 0 486 l 1
 154 640 l 1
 512 282 l 1
 870 640 l 1
EndSplineSet
Validated: 1
EndChar

StartChar: uni0830
Encoding: 2096 2096 20
Width: 1024
Flags: H
LayerCount: 2
Fore
SplineSet
300 349 m 2
 173 222 l 2
 140 190 120 144 120 95 c 0
 120 45 140 0 173 -32 c 0
 205 -65 250 -85 300 -85 c 0
 350 -85 395 -65 427 -32 c 2
 470 10 l 1
 554 -75 l 1
 512 -117 l 2
 458 -171 383 -205 300 -205 c 0
 300 -205 l 0
 299 -205 l 0
 217 -205 142 -171 88 -117 c 0
 34 -63 0 12 0 95 c 0
 0 178 34 253 88 307 c 2
 215 434 l 2
 272 491 347 522 427 522 c 0
 507 522 583 491 639 434 c 2
 682 392 l 1
 597 307 l 1
 554 349 l 2
 520 383 474 400 427 400 c 0
 380 400 334 383 300 349 c 2
512 731 m 2
 566 785 641 819 724 819 c 0
 807 819 882 785 936 731 c 0
 990 677 1024 602 1024 519 c 0
 1024 436 990 361 936 307 c 2
 809 180 l 2
 752 123 677 92 597 92 c 0
 517 92 441 123 385 180 c 2
 342 222 l 1
 427 307 l 1
 470 265 l 2
 504 231 550 214 597 214 c 0
 644 214 690 231 724 265 c 2
 851 392 l 2
 884 424 904 470 904 519 c 0
 904 569 884 614 851 646 c 0
 819 679 774 699 724 699 c 0
 674 699 629 679 597 646 c 2
 554 604 l 1
 470 689 l 1
 512 731 l 2
EndSplineSet
Validated: 5
EndChar

StartChar: uni0856
Encoding: 2134 2134 21
Width: 1024
Flags: H
LayerCount: 2
Fore
SplineSet
1024 307 m 0
 1024 24.419921875 794.580078125 -205 512 -205 c 0
 229.419921875 -205 0 24.419921875 0 307 c 0
 0 589.580078125 229.419921875 819 512 819 c 0
 794.580078125 819 1024 589.580078125 1024 307 c 0
838.983398438 307 m 1
 512 633.983398438 l 1
 185.016601562 307 l 1
 512 -19.9833984375 l 1
 838.983398438 307 l 1
512.227539062 106.133789062 m 0
 523.732096354 106.133789062 532.966471354 108.555989583 539.930664062 113.400390625 c 0
 546.894205729 118.244140625 552.646484375 125.964518229 557.1875 136.561523438 c 2
 667.545898438 379.076171875 l 2
 672.390299479 389.673177083 673.903971354 399.210286458 672.086914062 407.6875 c 0
 670.573242188 416.165364583 666.637369792 422.674804688 660.279296875 427.215820312 c 0
 653.921223958 432.060221354 646.049479167 434.482421875 636.6640625 434.482421875 c 0
 625.158854167 434.482421875 616.227213542 431.757486979 609.869140625 426.307617188 c 0
 603.511067708 421.160481771 598.061197917 413.288736979 593.51953125 402.692382812 c 2
 500.874023438 187.879882812 l 1
 526.305664062 187.879882812 l 1
 433.66015625 402.23828125 l 2
 429.118489583 412.834635417 423.668619792 420.857747396 417.310546875 426.307617188 c 0
 411.255208333 431.757486979 402.020833333 434.482421875 389.607421875 434.482421875 c 0
 379.615885417 434.482421875 371.289713542 432.060221354 364.62890625 427.215820312 c 0
 357.968098958 422.674804688 353.729492188 416.165364583 351.913085938 407.6875 c 0
 350.096679688 399.210286458 351.610351562 389.673177083 356.454101562 379.076171875 c 2
 466.358398438 136.561523438 l 2
 471.202799479 125.964518229 477.106770833 118.244140625 484.0703125 113.400390625 c 0
 491.336588542 108.555989583 500.722330729 106.133789062 512.227539062 106.133789062 c 0
EndSplineSet
Validated: 5
EndChar

StartChar: uni0857
Encoding: 2135 2135 22
Width: 1024
Flags: HW
LayerCount: 2
Fore
SplineSet
248 67 m 1
 0 205 l 1
 0 326 l 2
 0 392 1 446 1 446 c 0
 1 446 112 384 248 308 c 2
 496 169 l 1
 502 172 l 2
 505 174 624 234 766 307 c 0
 908 379 1024 438 1024 438 c 0
 1024 438 1024 384 1024 319 c 2
 1023 201 l 1
 770 70 l 2
 631 -2 512 -64 506 -66 c 2
 496 -72 l 1
 248 67 l 1
964 -31 m 2
 957 -30 954 -29 947 -25 c 0
 937 -20 930 -13 925 -3 c 0
 921 5 919 12 919 21 c 0
 919 42 929 59 947 67 c 0
 956 72 962 73 973 73 c 0
 980 73 983 72 988 71 c 0
 1004 66 1017 54 1022 36 c 0
 1023 32 1024 29 1024 21 c 0
 1024 13 1023 10 1022 6 c 0
 1016 -13 1003 -25 985 -29 c 0
 979 -31 970 -31 964 -31 c 2
 964 -31 l 2
985 -23 m 2
 999 -19 1011 -7 1015 9 c 0
 1016 12 1016 16 1016 21 c 0
 1016 28 1016 30 1014 36 c 0
 1008 55 993 66 972 66 c 0
 958 66 949 63 940 54 c 0
 931 45 927 33 927 21 c 0
 927 13 929 4 934 -4 c 0
 939 -12 947 -19 956 -22 c 0
 964 -25 976 -25 985 -23 c 2
 985 -23 l 2
953 21 m 1
 953 47 l 1
 969 47 l 2
 984 46 985 46 988 45 c 0
 994 41 996 36 995 29 c 0
 994 24 992 22 987 20 c 0
 985 19 983 18 983 18 c 0
 983 17 985 13 989 7 c 0
 993 1 995 -4 995 -4 c 0
 995 -5 994 -5 992 -5 c 2
 988 -5 l 1
 982 6 l 1
 975 17 l 1
 968 17 l 1
 960 17 l 1
 960 6 l 1
 960 -5 l 1
 957 -5 l 1
 953 -5 l 1
 953 21 l 1
982 23 m 2
 987 25 990 31 988 36 c 0
 985 40 983 41 970 42 c 2
 960 42 l 1
 960 32 l 1
 960 22 l 1
 969 22 l 2
 975 22 980 23 982 23 c 2
 982 23 l 2
473 351 m 2
 446 366 424 379 423 379 c 0
 423 379 686 521 775 568 c 2
 785 573 l 1
 785 517 l 1
 785 461 l 1
 655 392 l 2
 583 355 524 324 524 324 c 0
 523 324 500 336 473 351 c 2
 473 351 l 2
273 463 m 2
 253 474 232 486 227 489 c 2
 217 494 l 1
 221 496 l 2
 226 499 571 679 579 683 c 2
 584 686 l 1
 584 638 l 1
 584 590 l 1
 464 525 l 2
 343 459 311 442 310 442 c 0
 310 442 294 451 273 463 c 2
 273 463 l 2
EndSplineSet
Validated: 5
EndChar

StartChar: uni0858
Encoding: 2136 2136 23
Width: 1024
Flags: HW
LayerCount: 2
Fore
SplineSet
842.520507812 430.512695312 m 0
 968.75390625 242.326171875 1024.02929688 105.618164062 1024.02929688 72.4013671875 c 0
 1024.02929688 65.33984375 1021.29882812 63.35546875 1016.79785156 63.35546875 c 0
 1002.33300781 63.35546875 969.478515625 85.22265625 946.907226562 102.375 c 2
 946.352539062 102.012695312 l 2
 952.859375 84.4970703125 974.897460938 22.1806640625 981.767578125 3.76953125 c 0
 983.750976562 -1.8408203125 985.180664062 -6.3427734375 985.180664062 -11.953125 c 0
 985.180664062 -17.3720703125 983.388671875 -21.169921875 980.487304688 -23.857421875 c 0
 977.415039062 -26.7802734375 974.001953125 -28.380859375 967.665039062 -28.380859375 c 2
 940.93359375 -28.380859375 l 2
 930.1171875 -28.380859375 925.765625 -30.9189453125 919.450195312 -37.0419921875 c 0
 910.596679688 -45.724609375 908.442382812 -47.708984375 901.0390625 -55.1123046875 c 0
 896.495117188 -59.4423828125 891.65234375 -61.4267578125 886.596679688 -61.4267578125 c 0
 875.396484375 -61.4267578125 870.510742188 -54.2158203125 867.971679688 -41.2021484375 c 0
 853.720703125 34.4697265625 840.536132812 117.373046875 837.272460938 140.115234375 c 0
 837.1015625 141.565429688 836.739257812 143.549804688 836.739257812 145.170898438 c 0
 836.739257812 147.34765625 837.634765625 149.139648438 840.173828125 149.139648438 c 0
 843.053710938 149.139648438 843.950195312 146.4296875 845.229492188 141.565429688 c 0
 850.6484375 119.528320312 871.40625 40.080078125 885.145507812 -24.0498046875 c 0
 886.211914062 -29.10546875 888.580078125 -31.08984375 891.4609375 -31.08984375 c 0
 893.807617188 -31.08984375 895.428710938 -30.3857421875 898.330078125 -27.484375 c 2
 910.426757812 -15.1962890625 l 2
 913.135742188 -12.486328125 913.83984375 -10.6728515625 913.83984375 -7.4306640625 c 0
 913.83984375 -3.8251953125 912.602539062 1.060546875 911.493164062 6.287109375 c 0
 908.975585938 17.6796875 902.831054688 47.6533203125 897.604492188 74.384765625 c 0
 896.6875 79.44140625 896.154296875 81.0625 896.154296875 82.513671875 c 0
 896.154296875 84.134765625 897.43359375 85.5859375 899.2265625 85.5859375 c 0
 900.655273438 85.5859375 901.935546875 84.8388671875 902.661132812 82.6845703125 c 0
 906.62890625 70.7802734375 927.215820312 12.068359375 930.651367188 1.59375 c 0
 931.568359375 -0.923828125 932.805664062 -3.099609375 934.619140625 -4.55078125 c 0
 936.411132812 -5.9794921875 938.416992188 -6.7265625 943.47265625 -6.7265625 c 2
 955.227539062 -6.7265625 l 2
 958.470703125 -6.7265625 959.899414062 -6.171875 960.98828125 -5.083984375 c 0
 962.24609375 -3.99609375 962.80078125 -2.3740234375 962.80078125 -0.390625 c 0
 962.80078125 2.3193359375 961.712890625 5.19921875 960.817382812 7.9296875 c 2
 921.797851562 119.528320312 l 2
 871.76953125 156.008789062 810.924804688 206.208007812 757.099609375 264.555664062 c 0
 703.08203125 323.24609375 652.520507812 393.861328125 634.279296875 472.604492188 c 0
 632.295898438 481.266601562 631.399414062 485.618164062 631.399414062 487.602539062 c 0
 631.399414062 489.39453125 632.658203125 490.674804688 634.471679688 490.674804688 c 0
 635.922851562 490.674804688 636.818359375 490.120117188 637.71484375 488.135742188 c 0
 639.890625 483.25 641.853515625 478.578125 644.221679688 473.500976562 c 0
 678.526367188 397.466796875 717.887695312 337.880859375 763.243164062 286.40234375 c 0
 827.16015625 213.994140625 906.458007812 155.283203125 998.0234375 93.1591796875 c 1
 998.556640625 93.521484375 l 1
 966.577148438 181.310546875 909.337890625 293.826171875 822.103515625 421.48828125 c 0
 797.71875 457.244140625 774.614257812 483.975585938 754.731445312 504.563476562 c 0
 720.255859375 540.1484375 697.854492188 552.244140625 686.12109375 563.08203125 c 0
 668.947265625 578.805664062 654.141601562 599.92578125 645.1171875 610.059570312 c 0
 625.42578125 631.905273438 605.564453125 653.750976562 571.600585938 653.750976562 c 0
 544.506835938 653.750976562 523.748046875 638.75390625 514.361328125 615.094726562 c 0
 511.481445312 607.69140625 510.564453125 602.293945312 508.217773438 597.94140625 c 0
 505.5078125 592.885742188 500.088867188 584.39453125 494.862304688 575.200195312 c 1
 519.588867188 575.200195312 l 1
 504.974609375 550.452148438 l 1
 510.734375 551.7109375 523.21484375 554.399414062 536.5703125 554.399414062 c 0
 553.189453125 554.399414062 571.23828125 550.08984375 579.75 533.470703125 c 0
 592.572265625 508.360351562 590.204101562 452.017578125 604.838867188 411.91015625 c 0
 619.666015625 370.735351562 647.29296875 333.1875 681.235351562 299.223632812 c 0
 682.131835938 298.328125 682.515625 297.602539062 682.515625 296.514648438 c 0
 682.515625 295.063476562 681.235351562 293.633789062 679.251953125 293.633789062 c 0
 678.526367188 293.633789062 677.993164062 293.826171875 677.459960938 294.16796875 c 0
 636.818359375 324.333984375 600.700195312 363.715820312 585.89453125 403.952148438 c 0
 570.000976562 446.791015625 570.000976562 503.666992188 560.591796875 522.461914062 c 0
 555.536132812 532.552734375 543.97265625 536.372070312 527.908203125 536.372070312 c 0
 509.838867188 536.372070312 496.313476562 533.299804688 477.34765625 529.139648438 c 1
 493.603515625 559.838867188 l 1
 460.173828125 559.838867188 l 1
 467.59765625 571.935546875 485.475585938 602.443359375 489.443359375 608.971679688 c 0
 491.256835938 611.8515625 493.241210938 619.788085938 495.758789062 626.294921875 c 0
 504.44140625 649.057617188 531.172851562 675.426757812 571.600585938 675.426757812 c 0
 613.521484375 675.426757812 638.994140625 648.887695312 658.6640625 627.3828125 c 0
 667.517578125 617.803710938 681.427734375 597.94140625 699.66796875 580.426757812 c 0
 716.287109375 564.533203125 775.318359375 530.760742188 842.520507812 430.512695312 c 0
222.512695312 640.396484375 m 0
 197.403320312 640.396484375 179.716796875 619.979492188 179.716796875 596.3203125 c 0
 172.84765625 590.5390625 169.413085938 583.135742188 167.428710938 573.919921875 c 0
 166.340820312 569.055664062 165.615234375 565.428710938 162.373046875 565.428710938 c 0
 159.30078125 565.428710938 158.575195312 569.396484375 157.6796875 574.090820312 c 0
 156.057617188 583.306640625 149.9140625 605.344726562 123.907226562 607.69140625 c 0
 119.747070312 632.630859375 98.072265625 645.452148438 77.84765625 645.452148438 c 0
 73.6875 645.452148438 69.3564453125 645.068359375 65.5810546875 644.001953125 c 0
 61.0576171875 649.954101562 53.99609375 653.921875 45.8681640625 653.921875 c 0
 32.341796875 653.921875 21.6962890625 643.083984375 21.6962890625 629.55859375 c 0
 21.6962890625 619.25390625 27.8193359375 610.592773438 36.84375 606.965820312 c 2
 36.84375 605.344726562 l 2
 36.84375 580.7890625 56.8974609375 558.943359375 84.162109375 558.943359375 c 0
 91.0322265625 541.76953125 104.579101562 534.729492188 115.950195312 532.552734375 c 0
 118.467773438 531.998046875 120.643554688 531.657226562 121.923828125 530.931640625 c 0
 123.352539062 530.036132812 123.907226562 528.77734375 123.907226562 527.326171875 c 0
 123.907226562 525.705078125 123.182617188 524.25390625 121.731445312 523.529296875 c 0
 120.28125 522.803710938 118.318359375 522.6328125 115.779296875 522.270507812 c 0
 103.491210938 520.6484375 94.8291015625 514.504882812 91.2236328125 508.723632812 c 0
 87.9599609375 509.0859375 84.8876953125 509.278320312 81.8154296875 509.278320312 c 0
 57.9853515625 509.278320312 38.828125 497.16015625 37.2060546875 479.282226562 c 0
 28.1826171875 475.84765625 21.6962890625 466.844726562 21.6962890625 456.732421875 c 0
 21.6962890625 442.267578125 31.80859375 432.326171875 46.0595703125 432.326171875 c 0
 52.396484375 432.326171875 58.8818359375 434.694335938 64.1298828125 440.454101562 c 0
 70.63671875 436.124023438 76.951171875 433.947265625 85.080078125 433.947265625 c 0
 96.087890625 433.947265625 105.645507812 439.899414062 113.411132812 451.291992188 c 0
 129.3046875 451.291992188 144.857421875 454.7265625 154.969726562 463.921875 c 0
 159.471679688 468.08203125 159.833984375 470.450195312 162.373046875 470.450195312 c 0
 164.356445312 470.450195312 165.252929688 468.807617188 165.252929688 466.844726562 c 0
 165.252929688 464.838867188 164.52734375 462.129882812 162.735351562 458.716796875 c 0
 155.502929688 444.977539062 141.78515625 434.501953125 125.891601562 434.501953125 c 0
 124.44140625 434.501953125 123.182617188 434.501953125 121.731445312 434.694335938 c 0
 111.981445312 420.421875 98.072265625 416.090820312 85.61328125 416.090820312 c 0
 79.6396484375 416.090820312 73.8798828125 416.987304688 69.3564453125 418.608398438 c 0
 63.212890625 413.893554688 54.3798828125 410.48046875 45.71875 410.48046875 c 0
 19.69140625 410.48046875 0 429.6171875 0 456.540039062 c 0
 0 470.06640625 8.4912109375 484.701171875 21.6962890625 490.120117188 c 0
 21.6962890625 504.37109375 40.470703125 525.705078125 84.6953125 525.705078125 c 2
 87.4267578125 525.705078125 l 1
 87.4267578125 528.244140625 l 2
 80.38671875 529.481445312 74.0498046875 536.372070312 74.0498046875 541.407226562 c 1
 41.8994140625 541.407226562 20.224609375 572.46875 20.224609375 592.331054688 c 0
 20.224609375 593.248046875 20.4169921875 595.232421875 20.4169921875 595.232421875 c 2
 7.0400390625 604.619140625 0 615.286132812 0 630.817382812 c 0
 0 655.735351562 20.0537109375 675.426757812 44.630859375 675.426757812 c 0
 57.4521484375 675.426757812 66.6689453125 670.733398438 74.9462890625 663.138671875 c 0
 78.40234375 663.671875 82.3701171875 663.86328125 85.61328125 663.86328125 c 0
 113.794921875 663.86328125 130.948242188 644.364257812 138.521484375 621.6015625 c 0
 147.9296875 621.067382812 159.108398438 613.8359375 160.921875 602.998046875 c 2
 163.631835938 602.998046875 l 1
 163.631835938 634.251953125 189.083007812 656.09765625 208.794921875 656.09765625 c 0
 215.47265625 665.655273438 227.20703125 675.426757812 245.276367188 675.426757812 c 0
 257.713867188 675.426757812 268.380859375 670.5625 275.975585938 663.138671875 c 0
 284.637695312 654.818359375 289.5234375 643.46875 289.5234375 632.247070312 c 0
 289.5234375 619.424804688 283.37890625 610.763671875 278.130859375 605.685546875 c 0
 279.751953125 602.46484375 280.115234375 599.029296875 280.115234375 595.040039062 c 0
 280.115234375 579.701171875 268.573242188 560.373046875 249.415039062 553.88671875 c 0
 247.068359375 535.262695312 227.376953125 524.083984375 207.344726562 524.083984375 c 0
 202.822265625 524.083984375 201.200195312 525.512695312 201.200195312 527.859375 c 0
 201.200195312 532.211914062 212.208984375 532.211914062 223.046875 542.686523438 c 0
 229.553710938 548.831054688 233.521484375 557.129882812 235.697265625 566.325195312 c 0
 252.31640625 571.935546875 261.340820312 582.602539062 261.340820312 597.771484375 c 0
 261.340820312 601.739257812 260.4453125 605.877929688 259.165039062 610.592773438 c 0
 265.138671875 614.90234375 268.9140625 621.963867188 268.9140625 630.091796875 c 0
 268.9140625 644.001953125 258.077148438 654.4765625 244.55078125 654.4765625 c 0
 234.609375 654.4765625 226.310546875 648.6953125 222.512695312 640.396484375 c 0
275.05859375 498.802734375 m 0
 285.170898438 513.053710938 289.693359375 528.584960938 293.491210938 542.665039062 c 0
 298.35546875 560.90625 302.515625 577.546875 316.0625 589.984375 c 0
 327.795898438 600.822265625 342.068359375 606.411132812 357.791992188 606.411132812 c 0
 370.591796875 606.411132812 377.995117188 603.53125 392.458984375 596.853515625 c 0
 403.10546875 591.989257812 411.233398438 591.797851562 423.521484375 591.797851562 c 2
 442.829101562 591.797851562 l 1
 422.262695312 561.65234375 l 1
 449.506835938 541.043945312 l 1
 410.891601562 528.96875 402.571289062 520.286132812 392.096679688 507.634765625 c 0
 389.024414062 504.029296875 387.2109375 502.215820312 384.885742188 502.215820312 c 0
 382.709960938 502.215820312 381.984375 503.645507812 381.984375 505.096679688 c 0
 381.984375 506.375976562 382.346679688 507.634765625 383.05078125 509.640625 c 0
 386.870117188 519.198242188 398.241210938 539.977539062 419.724609375 546.291992188 c 1
 402.571289062 558.388671875 l 1
 415.201171875 575.370117188 l 1
 413.046875 575.178710938 410.700195312 575.0078125 407.435546875 575.0078125 c 0
 398.048828125 575.0078125 394.805664062 575.733398438 385.952148438 579.530273438 c 0
 376.203125 583.668945312 369.525390625 585.845703125 360.479492188 585.845703125 c 0
 349.833984375 585.845703125 339.359375 582.41015625 331.060546875 574.474609375 c 0
 321.84375 565.599609375 319.134765625 553.33203125 315.870117188 539.614257812 c 0
 306.483398438 500.958007812 291.485351562 484.146484375 267.29296875 455.815429688 c 2
 259.165039062 446.236328125 l 2
 235.67578125 418.4375 218.907226562 382.297851562 206.427734375 355.587890625 c 2
 203.739257812 349.806640625 l 2
 199.920898438 349.977539062 197.594726562 349.977539062 194.693359375 349.977539062 c 0
 188.93359375 349.977539062 183.685546875 349.614257812 180.05859375 349.251953125 c 1
 202.288085938 403.418945312 215.643554688 427.803710938 241.116210938 457.969726562 c 0
 260.4453125 480.733398438 266.567382812 486.685546875 275.05859375 498.802734375 c 0
316.595703125 375.8125 m 0
 329.247070312 392.794921875 333.578125 398.5546875 335.19921875 421.8515625 c 0
 336.458007812 439.366210938 337.545898438 459.057617188 356.704101562 477.297851562 c 0
 367.157226562 487.431640625 382.517578125 492.829101562 396.790039062 492.829101562 c 0
 404.7265625 492.829101562 410.336914062 491.741210938 415.584960938 490.482421875 c 0
 422.43359375 488.861328125 428.21484375 488.135742188 433.271484375 488.135742188 c 0
 441.037109375 488.135742188 447.543945312 489.756835938 456.397460938 491.5703125 c 2
 471.010742188 494.62109375 l 1
 457.65625 461.9375 l 1
 488.717773438 448.412109375 l 1
 466.872070312 435.3984375 445.004882812 408.3046875 436.876953125 379.41796875 c 0
 432.012695312 362.244140625 431.094726562 343.12890625 430.561523438 331.01171875 c 2
 430.391601562 326.8515625 l 2
 430.19921875 324.8671875 428.940429688 323.779296875 427.126953125 323.779296875 c 0
 425.142578125 323.779296875 424.41796875 325.059570312 424.0546875 326.318359375 c 0
 420.982421875 338.051757812 418.806640625 351.236328125 418.806640625 365.508789062 c 0
 418.806640625 405.061523438 446.092773438 438.470703125 458.551757812 446.236328125 c 1
 439.052734375 454.171875 l 1
 447.373046875 474.055664062 l 1
 443.916992188 472.775390625 l 2
 439.5859375 471.154296875 434.700195312 469.532226562 428.0234375 469.532226562 c 0
 418.635742188 469.532226562 412.321289062 472.604492188 401.483398438 472.604492188 c 0
 390.283203125 472.604492188 379.083007812 468.63671875 371.317382812 460.87109375 c 0
 360.864257812 450.587890625 357.94140625 439.366210938 357.044921875 428.358398438 c 0
 356.704101562 424.944335938 356.704101562 421.48828125 356.51171875 417.8828125 c 0
 355.807617188 396.5703125 351.647460938 389.72265625 341.342773438 373.828125 c 0
 329.97265625 356.291992188 312.627929688 333.1875 300.168945312 314.413085938 c 0
 296.200195312 316.568359375 284.80859375 322.712890625 281.373046875 324.333984375 c 1
 292.2109375 343.662109375 306.291992188 361.903320312 316.595703125 375.8125 c 0
780.033203125 364.783203125 m 0
 798.807617188 341.124023438 820.098632812 317.65625 840.899414062 295.426757812 c 0
 867.438476562 267.265625 895.791015625 237.995117188 922.16015625 213.994140625 c 0
 923.248046875 213.098632812 923.610351562 212.181640625 923.610351562 211.28515625 c 0
 923.610351562 209.813476562 922.352539062 208.021484375 920.5390625 208.021484375 c 0
 919.450195312 208.021484375 918.5546875 208.5546875 917.274414062 209.471679688 c 2
 908.442382812 215.616210938 l 2
 880.068359375 235.669921875 853.528320312 258.048828125 830.95703125 282.049804688 c 0
 810.0078125 304.109375 793.025390625 327.576171875 779.307617188 350.873046875 c 0
 774.78515625 358.467773438 772.993164062 361.540039062 772.993164062 364.079101562 c 0
 772.993164062 365.700195312 774.059570312 367.151367188 776.236328125 367.151367188 c 0
 777.665039062 367.151367188 778.752929688 366.404296875 780.033203125 364.783203125 c 0
198.853515625 446.598632812 m 1
 183.685546875 482.354492188 167.62109375 509.278320312 158.041992188 523.166015625 c 2
 166.340820312 531.294921875 l 1
 176.282226562 520.627929688 199.024414062 493.725585938 212.934570312 465.564453125 c 0
 209.69140625 462.129882812 201.563476562 451.100585938 198.853515625 446.598632812 c 1
66.4765625 609.67578125 m 0
 64.833984375 611.125976562 64.4921875 612.043945312 64.4921875 613.110351562 c 0
 64.4921875 614.369140625 65.388671875 615.819335938 67.373046875 615.819335938 c 0
 68.09765625 615.819335938 68.8017578125 615.649414062 69.7197265625 615.264648438 c 0
 83.07421875 609.8671875 94.466796875 603.53125 104.579101562 595.765625 c 0
 113.0703125 589.280273438 121.369140625 581.322265625 129.497070312 571.744140625 c 2
 121.90234375 563.08203125 l 2
 112.536132812 570.869140625 82.1787109375 596.298828125 66.4765625 609.67578125 c 0
194.5234375 549.171875 m 2
 184.7734375 555.145507812 l 2
 191.06640625 570.122070312 198.853515625 583.861328125 208.048828125 594.14453125 c 0
 214.555664062 601.546875 220.700195312 607.520507812 227.569335938 613.47265625 c 0
 229.190429688 614.731445312 230.086914062 615.819335938 231.708007812 615.819335938 c 0
 233.521484375 615.819335938 234.801757812 614.369140625 234.801757812 612.939453125 c 0
 234.801757812 612.213867188 234.438476562 611.318359375 233.713867188 610.23046875 c 0
 222.705078125 593.077148438 201.200195312 559.114257812 194.5234375 549.171875 c 2
72.06640625 465.393554688 m 2
 69.7197265625 464.4765625 68.630859375 463.921875 67.373046875 463.921875 c 0
 65.388671875 463.921875 64.4716796875 465.564453125 64.4716796875 466.844726562 c 0
 64.4716796875 468.08203125 65.0263671875 468.807617188 66.3056640625 469.916992188 c 0
 88.4931640625 487.240234375 108.013671875 494.087890625 134.916015625 498.631835938 c 2
 138.158203125 487.7734375 l 1
 72.06640625 465.393554688 l 2
535.311523438 605.515625 m 0
 535.311523438 611.8515625 538.575195312 623.244140625 550.309570312 623.244140625 c 0
 554.27734375 623.244140625 558.053710938 622.326171875 561.125976562 620.875976562 c 0
 565.477539062 618.891601562 568.357421875 616.01171875 568.357421875 612.939453125 c 0
 568.357421875 609.67578125 565.115234375 606.432617188 560.229492188 602.443359375 c 0
 555.173828125 598.3046875 548.6875 594.506835938 543.439453125 594.506835938 c 0
 537.125 594.506835938 535.311523438 600.48046875 535.311523438 605.515625 c 0
352.009765625 552.798828125 m 0
 352.009765625 560.54296875 356.682617188 569.055664062 365.727539062 569.055664062 c 0
 369.696289062 569.055664062 374.389648438 567.434570312 377.82421875 564.1484375 c 0
 379.80859375 562.356445312 380.704101562 560.393554688 380.704101562 558.388671875 c 0
 380.704101562 554.036132812 376.565429688 549.897460938 371.6796875 547.017578125 c 0
 367.8828125 544.841796875 363.915039062 543.390625 360.500976562 543.390625 c 0
 354.890625 543.390625 352.009765625 546.846679688 352.009765625 552.798828125 c 0
394.443359375 441.350585938 m 0
 394.443359375 443.1640625 394.635742188 445.33984375 395.33984375 447.495117188 c 0
 396.790039062 452.188476562 399.840820312 456.7109375 407.45703125 456.7109375 c 0
 410.891601562 456.7109375 414.66796875 455.815429688 417.740234375 453.6171875 c 0
 420.44921875 451.825195312 421.537109375 449.478515625 421.537109375 447.131835938 c 0
 421.537109375 439.366210938 408.5234375 430.341796875 402.016601562 430.341796875 c 0
 397.323242188 430.341796875 394.443359375 434.865234375 394.443359375 441.350585938 c 0
323.294921875 213.439453125 m 0
 298.91015625 213.439453125 288.05078125 225.002929688 288.05078125 239.616210938 c 0
 288.05078125 265.28125 333.043945312 290.370117188 373.493164062 305.922851562 c 2
 383.96875 292.354492188 l 1
 359.05078125 282.43359375 308.8515625 261.099609375 308.8515625 242.688476562 c 0
 308.8515625 236.203125 312.627929688 231.48828125 327.795898438 231.48828125 c 0
 354.165039062 231.48828125 382.5390625 244.331054688 408.715820312 257.153320312 c 0
 410.700195312 258.048828125 413.046875 258.9453125 415.22265625 258.9453125 c 0
 418.635742188 258.9453125 420.8125 257.857421875 423.330078125 254.2734375 c 2
 427.681640625 248.299804688 l 1
 397.153320312 231.48828125 359.05078125 213.439453125 323.294921875 213.439453125 c 0
390.475585938 206.5703125 m 1
 394.998046875 190.122070312 l 2
 370.61328125 176.788085938 345.140625 167.572265625 320.030273438 167.572265625 c 0
 290.58984375 167.572265625 260.08203125 180.201171875 237.852539062 213.26953125 c 0
 229.190429688 211.092773438 214.193359375 208.5546875 193.626953125 208.5546875 c 0
 185.499023438 208.5546875 180.784179688 208.74609375 177.541015625 210.368164062 c 0
 174.83203125 211.626953125 173.573242188 214.3359375 173.040039062 217.599609375 c 2
 171.759765625 225.365234375 l 1
 179.525390625 225.365234375 l 2
 195.952148438 225.365234375 217.990234375 226.965820312 227.3984375 230.229492188 c 1
 223.942382812 237.461914062 l 2
 214.7265625 256.9609375 208.240234375 264.918945312 194.71484375 264.918945312 c 0
 185.83984375 264.918945312 179.525390625 262.572265625 170.86328125 259.840820312 c 0
 169.604492188 259.478515625 167.237304688 258.412109375 164.889648438 258.412109375 c 0
 159.663085938 258.412109375 157.487304688 262.379882812 156.228515625 267.969726562 c 2
 155.502929688 271.42578125 l 2
 171.034179688 278.08203125 185.668945312 284.225585938 200.666992188 284.225585938 c 0
 217.094726562 284.225585938 226.481445312 276.09765625 235.142578125 260.9296875 c 0
 242.375 248.107421875 248.348632812 233.6640625 255.921875 222.123046875 c 0
 273.9921875 194.836914062 295.645507812 184.361328125 320.030273438 184.361328125 c 0
 341.897460938 184.361328125 366.624023438 193.215820312 390.475585938 206.5703125 c 1
415.030273438 198.442382812 m 1
 410.700195312 215.083007812 l 2
 447.90625 235.115234375 481.848632812 251.1796875 536.037109375 256.427734375 c 1
 537.125 235.669921875 535.673828125 209.471679688 551.034179688 209.471679688 c 0
 565.115234375 209.471679688 595.814453125 245.782226562 631.208007812 291.287109375 c 1
 634.471679688 288.215820312 639.698242188 284.951171875 644.391601562 281.345703125 c 1
 635.368164062 269.612304688 l 2
 600.87109375 225.173828125 571.4296875 187.2421875 547.215820312 187.2421875 c 0
 524.666015625 187.2421875 516.153320312 213.802734375 515.8125 233.6640625 c 1
 481.315429688 230.229492188 448.802734375 218.688476562 415.030273438 198.442382812 c 1
892.911132812 560.927734375 m 0
 905.733398438 560.927734375 927.770507812 567.967773438 950.150390625 575.733398438 c 0
 971.462890625 583.135742188 992.049804688 591.09375 1002.16210938 594.14453125 c 1
 1002.16210938 572.46875 l 2
 993.30859375 569.951171875 975.430664062 563.08203125 955.953125 556.404296875 c 0
 932.443359375 548.46875 907.525390625 540.510742188 891.630859375 540.510742188 c 0
 865.817382812 540.510742188 855.341796875 555.678710938 855.341796875 576.095703125 c 0
 855.341796875 577.354492188 855.512695312 578.805664062 855.512695312 580.063476562 c 1
 852.6328125 580.063476562 l 2
 837.1015625 555.849609375 822.829101562 531.294921875 809.815429688 516.873046875 c 1
 795.905273438 531.828125 l 2
 820.120117188 561.09765625 864.920898438 631.713867188 876.270507812 653.750976562 c 2
 898.137695312 653.750976562 l 1
 889.114257812 635.1484375 874.841796875 602.443359375 874.841796875 579.701171875 c 0
 874.841796875 568.693359375 878.809570312 560.927734375 892.911132812 560.927734375 c 0
941.125976562 495.368164062 m 0
 938.053710938 494.087890625 936.965820312 493 936.965820312 491.400390625 c 0
 936.965820312 488.690429688 939.3125 487.602539062 947.440429688 487.602539062 c 0
 961.1796875 487.602539062 982.30078125 491.93359375 1002.16210938 495.5390625 c 1
 1002.16210938 478.94140625 l 2
 966.76953125 470.62109375 945.6484375 470.62109375 919.813476562 470.62109375 c 0
 901.380859375 470.62109375 880.963867188 464.4765625 858.22265625 455.08984375 c 0
 857.155273438 456.7109375 847.747070312 469.916992188 846.296875 471.6875 c 1
 900.122070312 500.958007812 979.057617188 533.641601562 1024.02929688 550.260742188 c 1
 1024.02929688 528.244140625 l 2
 1001.62890625 520.09375 962.780273438 504.563476562 941.125976562 495.368164062 c 0
478.4140625 393.861328125 m 1
 555.173828125 393.861328125 l 1
 562.04296875 377.2421875 l 1
 469.73046875 377.2421875 l 1
 478.4140625 393.861328125 l 1
145.923828125 294.72265625 m 0
 128.045898438 294.72265625 95 308.248046875 80.919921875 321.26171875 c 1
 79.2978515625 317.463867188 78.2099609375 314.392578125 78.2099609375 310.061523438 c 0
 78.2099609375 289.474609375 116.845703125 257.494140625 153.15625 247.936523438 c 2
 156.590820312 230.784179688 l 1
 131.310546875 233.856445312 110.53125 241.79296875 93.7412109375 254.806640625 c 1
 91.927734375 251.541992188 91.39453125 247.936523438 91.39453125 244.865234375 c 0
 91.39453125 237.6328125 95 231.48828125 96.984375 228.416015625 c 0
 101.14453125 221.930664062 120.643554688 199.701171875 123.715820312 196.287109375 c 0
 131.84375 186.87890625 137.455078125 185.279296875 144.131835938 185.279296875 c 0
 149.9140625 185.279296875 154.436523438 186.708007812 159.30078125 187.966796875 c 0
 163.4609375 189.055664062 168.346679688 190.143554688 174.298828125 190.143554688 c 0
 188.016601562 190.143554688 204.250976562 183.806640625 222.512695312 172.991210938 c 0
 240.75390625 162.153320312 258.97265625 148.243164062 272.178710938 132.711914062 c 1
 256.83984375 120.978515625 l 2
 244.721679688 134.525390625 229.361328125 146.259765625 214.748046875 154.920898438 c 0
 197.403320312 165.225585938 183.493164062 170.473632812 171.396484375 170.473632812 c 0
 160.559570312 170.473632812 150.809570312 166.67578125 140.334960938 162.153320312 c 0
 104.75 146.962890625 56.8974609375 127.485351562 47.1484375 123.133789062 c 0
 22.955078125 112.295898438 22.400390625 98.9189453125 22.208984375 83.9638671875 c 0
 22.208984375 77.435546875 22.400390625 71.4833984375 22.400390625 66.2353515625 c 0
 22.400390625 58.4697265625 20.779296875 50.36328125 7.232421875 50.36328125 c 2
 0.7255859375 50.36328125 l 2
 0.021484375 61.0087890625 0.021484375 72.9345703125 0.021484375 83.4091796875 c 0
 0.021484375 110.50390625 8.4912109375 127.65625 42.2626953125 141.7578125 c 0
 52.01171875 145.896484375 93.7412109375 163.9453125 116.141601562 172.627929688 c 1
 110.702148438 178.409179688 l 2
 83.62890625 207.466796875 69.7197265625 222.293945312 69.7197265625 246.678710938 c 0
 69.7197265625 258.048828125 72.9619140625 263.831054688 72.9619140625 268.715820312 c 0
 72.9619140625 275.22265625 67.009765625 280.2578125 61.9541015625 288.0234375 c 0
 57.2607421875 295.426757812 53.2919921875 303.938476562 53.2919921875 310.616210938 c 0
 53.2919921875 320.728515625 57.4306640625 326.872070312 57.4306640625 335.896484375 c 0
 57.4306640625 342.57421875 53.2919921875 346.1796875 53.2919921875 353.412109375 c 0
 53.2919921875 378.522460938 117.592773438 397.48828125 171.567382812 397.48828125 c 1
 164.186523438 380.676757812 l 2
 156.057617188 380.676757812 81.6455078125 372.71875 81.6455078125 352.131835938 c 0
 81.6455078125 334.637695312 128.430664062 316.568359375 146.649414062 316.568359375 c 0
 154.052734375 316.568359375 161.114257812 319.981445312 169.2421875 323.267578125 c 0
 176.453125 326.125976562 184.047851562 328.856445312 194.501953125 328.856445312 c 0
 217.45703125 328.856445312 261.51171875 311.682617188 289.138671875 295.618164062 c 2
 285.896484375 289.666015625 l 2
 283.93359375 285.869140625 280.861328125 284.055664062 276.850585938 284.055664062 c 0
 275.250976562 284.055664062 273.62890625 284.41796875 272.178710938 284.97265625 c 0
 247.068359375 295.618164062 218.5234375 306.818359375 195.418945312 306.818359375 c 0
 185.668945312 306.818359375 178.4375 303.938476562 171.2265625 301.015625 c 0
 163.631835938 297.96484375 155.673828125 294.72265625 145.923828125 294.72265625 c 0
405.814453125 291.458007812 m 1
 428.578125 307.543945312 452.044921875 309.3359375 471.010742188 309.3359375 c 0
 482.403320312 309.3359375 495.758789062 307.71484375 509.838867188 305.922851562 c 0
 521.231445312 304.471679688 531.513671875 303.383789062 543.802734375 303.383789062 c 0
 568.528320312 303.383789062 593.467773438 312.408203125 604.284179688 317.123046875 c 0
 607.356445312 313.303710938 612.604492188 308.248046875 616.764648438 304.642578125 c 1
 611.516601562 301.399414062 578.299804688 283.3515625 544.357421875 283.3515625 c 0
 529.359375 283.3515625 515.086914062 285.122070312 502.798828125 286.764648438 c 0
 491.9609375 288.194335938 480.227539062 289.474609375 468.834960938 289.474609375 c 0
 456.397460938 289.474609375 431.287109375 285.869140625 415.755859375 278.444335938 c 2
 405.814453125 291.458007812 l 1
741.205078125 226.987304688 m 1
 746.26171875 223.573242188 752.213867188 219.947265625 758.549804688 215.978515625 c 0
 734.3359375 161.235351562 691.540039062 113.576171875 641.3203125 85.3935546875 c 0
 618.21484375 72.4013671875 597.265625 63.376953125 553.915039062 63.376953125 c 2
 469.197265625 63.376953125 l 2
 439.94921875 63.376953125 426.59375 60.3046875 412.854492188 56.8486328125 c 0
 395.168945312 52.34765625 382.880859375 47.6328125 363.744140625 47.6328125 c 0
 329.801757812 47.6328125 301.064453125 65.7021484375 289.693359375 78.7158203125 c 2
 209.69140625 16.228515625 l 2
 185.135742188 -3.099609375 162.713867188 -6.8974609375 138.54296875 -6.8974609375 c 2
 134.01953125 -6.8974609375 l 1
 134.01953125 -0.560546875 l 2
 134.01953125 3.9404296875 135.086914062 7.205078125 137.262695312 9.359375 c 0
 139.247070312 11.34375 141.763671875 12.431640625 147.375 12.431640625 c 0
 160.559570312 12.431640625 175.536132812 15.673828125 187.653320312 22.71484375 c 0
 199.38671875 29.60546875 207.515625 38.6083984375 207.515625 61.392578125 c 0
 207.515625 90.0869140625 197.958007812 100.370117188 159.4921875 113.212890625 c 1
 178.458984375 124.391601562 l 2
 206.427734375 113.212890625 224.859375 103.633789062 224.859375 63.91015625 c 0
 224.859375 60.646484375 224.859375 57.3818359375 224.497070312 53.7763671875 c 2
 225.393554688 53.2431640625 l 2
 240.220703125 64.998046875 310.8359375 117.180664062 316.6171875 121.340820312 c 2
 326.537109375 108.135742188 l 1
 306.67578125 92.43359375 l 1
 317.321289062 81.2548828125 339.359375 69.521484375 363.2109375 69.521484375 c 0
 379.275390625 69.521484375 389.366210938 73.66015625 405.28125 77.798828125 c 0
 420.086914062 81.595703125 439.052734375 85.564453125 469.197265625 85.564453125 c 2
 553.551757812 85.564453125 l 2
 592.55078125 85.564453125 610.620117188 92.98828125 630.673828125 104.359375 c 0
 672.915039062 128.381835938 714.111328125 169.897460938 741.205078125 226.987304688 c 1
605.201171875 159.081054688 m 1
 607.569335938 158.35546875 610.44921875 157.993164062 614.41796875 157.993164062 c 0
 636.796875 157.993164062 654.8671875 170.8359375 676.541992188 187.966796875 c 1
 677.24609375 180.948242188 l 2
 677.438476562 179.134765625 677.629882812 177.321289062 677.629882812 175.337890625 c 0
 677.629882812 171.198242188 676.350585938 167.379882812 670.953125 163.241210938 c 0
 655.762695312 151.5078125 631.5703125 138.685546875 608.102539062 138.685546875 c 0
 601.595703125 138.685546875 596.540039062 139.752929688 590.737304688 141.374023438 c 0
 549.776367188 116.456054688 486.008789062 105.810546875 418.444335938 105.810546875 c 2
 405.47265625 105.810546875 l 1
 406.90234375 111.954101562 l 2
 407.798828125 115.922851562 409.249023438 118.802734375 411.0625 120.423828125 c 0
 413.046875 122.06640625 415.030273438 122.962890625 420.641601562 122.962890625 c 0
 432.716796875 122.962890625 472.82421875 124.413085938 497.208984375 130.1953125 c 1
 490.509765625 147.155273438 478.4140625 168.296875 459.810546875 168.296875 c 0
 448.268554688 168.296875 431.116210938 161.620117188 412.150390625 153.491210938 c 0
 390.283203125 144.104492188 368.4375 133.266601562 360.864257812 129.0859375 c 2
 350.921875 142.461914062 l 1
 358.325195312 147.34765625 381.622070312 160.168945312 407.073242188 171.369140625 c 0
 428.748046875 180.948242188 447.522460938 189.41796875 463.799804688 189.41796875 c 0
 487.2890625 189.41796875 509.4765625 162.32421875 518.330078125 135.05859375 c 0
 533.327148438 138.494140625 545.061523438 142.461914062 554.639648438 146.067382812 c 0
 592.7421875 160.702148438 589.5 182.377929688 625.618164062 219.947265625 c 0
 641.340820312 236.395507812 659.752929688 252.630859375 678.333984375 260.758789062 c 0
 682.153320312 258.219726562 689.364257812 253.526367188 694.419921875 250.454101562 c 1
 646.546875 225.173828125 627.047851562 194.111328125 605.201171875 159.081054688 c 1
EndSplineSet
Validated: 1
EndChar

StartChar: uni0859
Encoding: 2137 2137 24
Width: 1024
Flags: HW
LayerCount: 2
Fore
SplineSet
0 819 m 1
 487.616210938 819 l 1
 487.616210938 331.383789062 l 1
 0 331.383789062 l 1
 0 819 l 1
536.383789062 819 m 1
 1024 819 l 1
 1024 331.383789062 l 1
 536.383789062 331.383789062 l 1
 536.383789062 819 l 1
0 282.616210938 m 1
 487.616210938 282.616210938 l 1
 487.616210938 -205 l 1
 0 -205 l 1
 0 282.616210938 l 1
536.383789062 282.616210938 m 1
 1024 282.616210938 l 1
 1024 -205 l 1
 536.383789062 -205 l 1
 536.383789062 282.616210938 l 1
EndSplineSet
Validated: 1
EndChar

StartChar: uni0831
Encoding: 2097 2097 25
Width: 1024
Flags: H
LayerCount: 2
Fore
SplineSet
921.599609375 716.599609375 m 2
 978.116210938 716.599609375 1024 670.715820312 1024 614.200195312 c 2
 1024 -0.2001953125 l 2
 1024 -56.7158203125 978.116210938 -102.599609375 921.599609375 -102.599609375 c 2
 102.400390625 -102.599609375 l 2
 45.8837890625 -102.599609375 0 -56.7158203125 0 -0.2001953125 c 2
 0 614.200195312 l 2
 0 670.715820312 45.8837890625 716.599609375 102.400390625 716.599609375 c 2
 921.599609375 716.599609375 l 2
921.599609375 475.959960938 m 1
 921.599609375 598.993164062 l 1
 512 325.944335938 l 1
 102.400390625 598.993164062 l 1
 102.400390625 475.959960938 l 1
 512 202.859375 l 1
 921.599609375 475.959960938 l 1
EndSplineSet
Validated: 1
EndChar

StartChar: uni0832
Encoding: 2098 2098 26
Width: 1024
Flags: H
LayerCount: 2
Fore
SplineSet
269.473632812 576.473632812 m 0
 269.473632812 710.186523438 378.287109375 819 512 819 c 0
 645.712890625 819 754.526367188 710.186523438 754.526367188 576.473632812 c 0
 754.526367188 442.760742188 645.712890625 333.947265625 512 333.947265625 c 0
 378.287109375 333.947265625 269.473632812 442.760742188 269.473632812 576.473632812 c 0
943.158203125 -205 m 1
 26.947265625 -205 l 1
 26.947265625 -151.10546875 l 2
 26.947265625 56.875 196.176757812 226.158203125 404.2109375 226.158203125 c 2
 619.7890625 226.158203125 l 2
 827.76953125 226.158203125 997.052734375 56.875 997.052734375 -151.10546875 c 2
 997.052734375 -205 l 1
 943.158203125 -205 l 1
EndSplineSet
Validated: 1
EndChar

StartChar: uni0833
Encoding: 2099 2099 27
Width: 1024
Flags: H
LayerCount: 2
Fore
SplineSet
512 819 m 0
 653.158203125 819 768 704.158203125 768 563 c 2
 768 409.400390625 l 1
 819.200195312 409.400390625 l 2
 875.715820312 409.400390625 921.599609375 363.515625 921.599609375 307 c 2
 921.599609375 -102.599609375 l 2
 921.599609375 -159.116210938 875.715820312 -205 819.200195312 -205 c 2
 204.799804688 -205 l 2
 148.284179688 -205 102.400390625 -159.116210938 102.400390625 -102.599609375 c 2
 102.400390625 307 l 2
 102.400390625 363.515625 148.284179688 409.400390625 204.799804688 409.400390625 c 2
 256 409.400390625 l 1
 256 563 l 2
 256 704.158203125 370.841796875 819 512 819 c 0
358.400390625 563 m 2
 358.400390625 409.400390625 l 1
 665.599609375 409.400390625 l 1
 665.599609375 563 l 2
 665.599609375 647.684570312 596.684570312 716.599609375 512 716.599609375 c 0
 427.315429688 716.599609375 358.400390625 647.684570312 358.400390625 563 c 2
563.200195312 13.982421875 m 2
 593.799804688 31.53125 614.337890625 64.4404296875 614.400390625 102.200195312 c 0
 614.400390625 158.744140625 568.55859375 204.657226562 512.014648438 204.657226562 c 0
 504.3984375 204.657226562 496.974609375 203.82421875 489.830078125 202.245117188 c 0
 443.944335938 192.268554688 409.357421875 151.454101562 409.357421875 102.59765625 c 0
 409.357421875 64.6865234375 430.077148438 31.576171875 460.799804688 13.982421875 c 2
 460.799804688 -102.599609375 l 1
 563.200195312 -102.599609375 l 1
 563.200195312 13.982421875 l 2
EndSplineSet
Validated: 1
EndChar

StartChar: uni0834
Encoding: 2100 2100 28
Width: 1024
Flags: H
LayerCount: 2
Fore
SplineSet
512 663.474609375 m 0
 900.7109375 663.474609375 1017.53222656 326.50390625 1018.65332031 323.092773438 c 2
 1024 307 l 1
 1018.6015625 290.907226562 l 2
 1017.53222656 287.49609375 900.7109375 -49.474609375 512 -49.474609375 c 0
 123.2890625 -49.474609375 6.4677734375 287.49609375 5.3466796875 290.907226562 c 2
 0 307 l 1
 5.3984375 323.092773438 l 2
 6.4677734375 326.50390625 123.2890625 663.474609375 512 663.474609375 c 0
512 103.299804688 m 0
 624.340820312 103.299804688 715.700195312 194.659179688 715.700195312 307 c 0
 715.700195312 419.340820312 624.340820312 510.700195312 512 510.700195312 c 0
 399.659179688 510.700195312 308.299804688 419.340820312 308.299804688 307 c 0
 308.299804688 194.659179688 399.659179688 103.299804688 512 103.299804688 c 0
512 408.849609375 m 0
 567.203125 408.849609375 613.849609375 362.203125 613.849609375 307 c 0
 613.849609375 251.796875 567.203125 205.150390625 512 205.150390625 c 0
 456.796875 205.150390625 410.150390625 251.796875 410.150390625 307 c 0
 410.150390625 362.203125 456.796875 408.849609375 512 408.849609375 c 0
EndSplineSet
Validated: 1
EndChar

StartChar: uni0835
Encoding: 2101 2101 29
Width: 1024
Flags: H
LayerCount: 2
Fore
SplineSet
309 297 m 2
 314 193 398 109 502 104 c 2
 642 -36 l 1
 602 -44 559 -49 512 -49 c 0
 123 -49 6 287 5 291 c 2
 0 307 l 1
 5 323 l 2
 6 325 35 409 113 494 c 1
 309 297 l 2
512 663 m 0
 901 663 1018 327 1019 323 c 2
 1024 307 l 1
 1019 291 l 2
 1018 289 970 152 836 53 c 1
 1004 -115 l 1
 932 -187 l 1
 15 729 l 1
 87 801 l 1
 276 613 l 2
 340 643 418 663 512 663 c 0
609 279 m 2
 686 202 l 1
 705 233 716 269 716 307 c 0
 716 419 624 511 512 511 c 0
 474 511 438 500 407 481 c 1
 484 404 l 2
 494 407 504 408 514 408 c 0
 540 408 565 399 584 379 c 0
 604 359 613 334 613 308 c 0
 613 299 612 289 609 279 c 2
EndSplineSet
Validated: 1
EndChar

StartChar: uni0836
Encoding: 2102 2102 30
Width: 1024
Flags: H
LayerCount: 2
Fore
SplineSet
512 819 m 0
 794.31640625 819 1024 589.31640625 1024 307 c 0
 1024 24.68359375 794.31640625 -205 512 -205 c 0
 229.68359375 -205 0 24.68359375 0 307 c 0
 0 589.31640625 229.68359375 819 512 819 c 0
409.651367188 81.0546875 m 1
 752.998046875 424.401367188 l 1
 680.6015625 496.798828125 l 1
 409.548828125 225.745117188 l 1
 291.83984375 343.25 l 1
 219.545898438 270.75 l 1
 409.651367188 81.0546875 l 1
EndSplineSet
Validated: 1
EndChar

StartChar: uni0837
Encoding: 2103 2103 31
Width: 1024
Flags: H
LayerCount: 2
Fore
SplineSet
512 819 m 0
 794.31640625 819 1024 589.31640625 1024 307 c 0
 1024 24.68359375 794.31640625 -205 512 -205 c 0
 229.68359375 -205 0 24.68359375 0 307 c 0
 0 589.31640625 229.68359375 819 512 819 c 0
563.200195312 51 m 1
 563.200195312 358.200195312 l 1
 460.799804688 358.200195312 l 1
 460.799804688 51 l 1
 563.200195312 51 l 1
563.200195312 460.599609375 m 1
 563.200195312 563 l 1
 460.799804688 563 l 1
 460.799804688 460.599609375 l 1
 563.200195312 460.599609375 l 1
EndSplineSet
Validated: 1
EndChar

StartChar: uni0839
Encoding: 2105 2105 32
Width: 1024
Flags: H
LayerCount: 2
Fore
SplineSet
512 819 m 0
 794.31640625 819 1024 589.31640625 1024 307 c 0
 1024 24.68359375 794.31640625 -205 512 -205 c 0
 229.68359375 -205 0 24.68359375 0 307 c 0
 0 589.31640625 229.68359375 819 512 819 c 0
727.3984375 163.998046875 m 1
 584.396484375 307 l 1
 727.3984375 450.001953125 l 1
 655.001953125 522.3984375 l 1
 512 379.396484375 l 1
 368.998046875 522.3984375 l 1
 296.6015625 450.001953125 l 1
 439.603515625 307 l 1
 296.6015625 163.998046875 l 1
 368.998046875 91.6015625 l 1
 512 234.603515625 l 1
 655.001953125 91.6015625 l 1
 727.3984375 163.998046875 l 1
EndSplineSet
Validated: 1
EndChar

StartChar: uni083A
Encoding: 2106 2106 33
Width: 1024
Flags: H
LayerCount: 2
Fore
SplineSet
172 819 m 1
 512 479 l 1
 852 819 l 1
 1024 647 l 1
 684 307 l 1
 1024 -33 l 1
 852 -205 l 1
 512 135 l 1
 172 -205 l 1
 0 -33 l 1
 340 307 l 1
 0 647 l 1
 172 819 l 1
EndSplineSet
Validated: 1
EndChar

StartChar: uni0838
Encoding: 2104 2104 34
Width: 1024
Flags: H
LayerCount: 2
Fore
SplineSet
509.59375 819 m 0
 793.241210938 819 1024 589.31640625 1024 307 c 0
 1024 24.68359375 794.31640625 -205 512 -205 c 0
 229.68359375 -205 0 24.68359375 0 307 c 0
 0 589.31640625 228.608398438 819 509.59375 819 c 0
563.200195312 51 m 1
 563.200195312 153.400390625 l 1
 460.799804688 153.400390625 l 1
 460.799804688 51 l 1
 563.200195312 51 l 1
563.200195312 255.799804688 m 1
 563.200195312 563 l 1
 460.799804688 563 l 1
 460.799804688 255.799804688 l 1
 563.200195312 255.799804688 l 1
EndSplineSet
Validated: 1
EndChar

StartChar: uni087C
Encoding: 2172 2172 35
Width: 1024
Flags: H
LayerCount: 2
Fore
SplineSet
840.430664062 326.114257812 m 0
 900.737304688 270.369140625 938.47265625 190.673828125 938.666992188 102.200195312 c 0
 938.666992188 -67.169921875 800.8359375 -205 631.466796875 -205 c 2
 85.3330078125 -205 l 1
 85.3330078125 819 l 1
 597.333007812 819 l 2
 766.703125 819 904.533203125 681.169921875 904.533203125 511.799804688 c 0
 904.2578125 441.9609375 880.290039062 377.37890625 840.430664062 326.114257812 c 0
597.333007812 614.200195312 m 2
 290.133789062 614.200195312 l 1
 290.133789062 409.400390625 l 1
 597.333007812 409.400390625 l 2
 653.790039062 409.400390625 699.733398438 455.34375 699.733398438 511.799804688 c 0
 699.733398438 568.256835938 653.790039062 614.200195312 597.333007812 614.200195312 c 2
631.466796875 -0.2001953125 m 2
 687.922851562 -0.2001953125 733.866210938 45.7431640625 733.866210938 102.200195312 c 0
 733.866210938 158.65625 687.922851562 204.599609375 631.466796875 204.599609375 c 2
 290.133789062 204.599609375 l 1
 290.133789062 -0.2001953125 l 1
 631.466796875 -0.2001953125 l 2
EndSplineSet
Validated: 1
EndChar

StartChar: uni087D
Encoding: 2173 2173 36
Width: 1024
Flags: H
LayerCount: 2
Fore
SplineSet
960 627 m 1
 703.232421875 627 l 1
 520.448242188 -13 l 1
 704 -13 l 1
 704 -205 l 1
 64 -205 l 1
 64 -13 l 1
 320.767578125 -13 l 1
 503.551757812 627 l 1
 320 627 l 1
 320 819 l 1
 960 819 l 1
 960 627 l 1
EndSplineSet
Validated: 1
EndChar

StartChar: uni087E
Encoding: 2174 2174 37
Width: 1024
Flags: H
LayerCount: 2
Fore
SplineSet
64 -77 m 1
 960 -77 l 1
 960 -205 l 1
 64 -205 l 1
 64 -77 l 1
128 819 m 1
 256 819 l 1
 256 435 l 2
 256 293.81640625 370.81640625 179 512 179 c 0
 653.18359375 179 768 293.81640625 768 435 c 2
 768 819 l 1
 896 819 l 1
 896 435 l 2
 896 223.223632812 723.776367188 51 512 51 c 0
 300.223632812 51 128 223.223632812 128 435 c 2
 128 819 l 1
EndSplineSet
Validated: 1
EndChar

StartChar: uni087F
Encoding: 2175 2175 38
Width: 1024
Flags: H
LayerCount: 2
Fore
SplineSet
1024 371 m 1
 1024 243 l 1
 0 243 l 1
 0 371 l 1
 175.103515625 371 l 1
 137.471679688 424.311523438 128 484.408203125 128 531 c 0
 128 617.591796875 165.375976562 819 512 819 c 0
 765.120117188 819 832 651.576171875 832 563 c 1
 768 563 l 1
 704 562.103515625 l 2
 703.360351562 583.608398438 691.200195312 691 512 691 c 0
 256 691 256 570.551757812 256 531 c 0
 256 487.223632812 256 371 512 371 c 2
 1024 371 l 1
512 -77 m 0
 768 -77 768 39.2236328125 768 83 c 0
 768 90.935546875 767.872070312 102.200195312 765.82421875 115 c 1
 894.208007812 115 l 2
 895.423828125 103.288085938 896 92.34375 896 83 c 0
 896 -24.583984375 846.143554688 -205 512 -205 c 0
 132.416015625 -205 128 48.4404296875 128 51 c 1
 256 51 l 2
 256.639648438 39.16015625 269.248046875 -77 512 -77 c 0
EndSplineSet
Validated: 1
EndChar

StartChar: uni0880
Encoding: 2176 2176 39
Width: 1024
Flags: H
LayerCount: 2
Fore
SplineSet
310.392578125 617.37890625 m 1
 387.293945312 540.477539062 l 1
 153.81640625 307 l 1
 387.293945312 73.5224609375 l 1
 310.392578125 -3.37890625 l 1
 0.013671875 307 l 1
 310.392578125 617.37890625 l 1
713.607421875 -3.37890625 m 1
 636.706054688 73.5224609375 l 1
 870.18359375 307 l 1
 636.706054688 540.477539062 l 1
 713.607421875 617.37890625 l 1
 1023.98632812 307 l 1
 713.607421875 -3.37890625 l 1
EndSplineSet
Validated: 1
EndChar

StartChar: uni0881
Encoding: 2177 2177 40
Width: 1024
Flags: H
LayerCount: 2
Fore
SplineSet
275.2109375 62.1728515625 m 1
 19.22265625 266.963867188 l 2
 7.486328125 276.348632812 -0.0361328125 290.748046875 -0.0361328125 306.9296875 c 0
 -0.0361328125 323.111328125 7.486328125 337.548828125 19.22265625 346.934570312 c 2
 275.2109375 551.724609375 l 1
 339.208007812 471.75390625 l 1
 133.189453125 306.94921875 l 1
 339.208007812 142.143554688 l 1
 275.2109375 62.1728515625 l 1
748.7890625 551.724609375 m 1
 1004.77734375 346.934570312 l 2
 1016.51367188 337.548828125 1024.03613281 323.149414062 1024.03613281 306.967773438 c 0
 1024.03613281 290.786132812 1016.51367188 276.348632812 1004.77734375 266.963867188 c 2
 748.7890625 62.1728515625 l 1
 684.791992188 142.143554688 l 1
 890.811523438 306.94921875 l 1
 684.791992188 471.75390625 l 1
 748.7890625 551.724609375 l 1
664.364257812 756.668945312 m 1
 459.573242188 -164.888671875 l 1
 359.584960938 -142.668945312 l 1
 564.375 778.888671875 l 1
 664.364257812 756.668945312 l 1
EndSplineSet
Validated: 1
EndChar

StartChar: uni0882
Encoding: 2178 2178 41
Width: 1024
Flags: H
LayerCount: 2
Fore
SplineSet
358.400390625 281.400390625 m 1
 307.200195312 383.799804688 l 1
 153.599609375 179 l 1
 512 179 l 1
 512 -25.7998046875 l 1
 102.400390625 -25.7998046875 l 2
 45.9267578125 -25.7998046875 0 20.1259765625 0 76.599609375 c 2
 0 691 l 2
 0 747.473632812 45.9267578125 793.400390625 102.400390625 793.400390625 c 2
 768 793.400390625 l 2
 824.473632812 793.400390625 870.400390625 747.473632812 870.400390625 691 c 2
 870.400390625 332.599609375 l 1
 665.599609375 332.599609375 l 1
 665.599609375 255.799804688 l 1
 512 486.200195312 l 1
 358.400390625 281.400390625 l 1
870.400390625 230.200195312 m 1
 870.400390625 76.599609375 l 1
 1024 76.599609375 l 1
 1024 -25.7998046875 l 1
 870.400390625 -25.7998046875 l 1
 870.400390625 -179.400390625 l 1
 768 -179.400390625 l 1
 768 -25.7998046875 l 1
 614.400390625 -25.7998046875 l 1
 614.400390625 76.599609375 l 1
 768 76.599609375 l 1
 768 230.200195312 l 1
 870.400390625 230.200195312 l 1
EndSplineSet
Validated: 1
EndChar

StartChar: uni0883
Encoding: 2179 2179 42
Width: 1024
Flags: H
LayerCount: 2
Fore
SplineSet
300 349 m 2
 173 222 l 2
 140 190 120 144 120 95 c 0
 120 45 140 0 173 -32 c 0
 205 -65 250 -85 300 -85 c 0
 350 -85 395 -65 427 -32 c 2
 470 10 l 1
 554 -75 l 1
 512 -117 l 2
 458 -171 383 -205 300 -205 c 0
 300 -205 l 0
 299 -205 l 0
 217 -205 142 -171 88 -117 c 0
 34 -63 0 12 0 95 c 0
 0 178 34 253 88 307 c 2
 215 434 l 2
 272 491 347 522 427 522 c 0
 507 522 583 491 639 434 c 2
 682 392 l 1
 597 307 l 1
 554 349 l 2
 520 383 474 400 427 400 c 0
 380 400 334 383 300 349 c 2
512 731 m 2
 566 785 641 819 724 819 c 0
 807 819 882 785 936 731 c 0
 990 677 1024 602 1024 519 c 0
 1024 436 990 361 936 307 c 2
 809 180 l 2
 752 123 677 92 597 92 c 0
 517 92 441 123 385 180 c 2
 342 222 l 1
 427 307 l 1
 470 265 l 2
 504 231 550 214 597 214 c 0
 644 214 690 231 724 265 c 2
 851 392 l 2
 884 424 904 470 904 519 c 0
 904 569 884 614 851 646 c 0
 819 679 774 699 724 699 c 0
 674 699 629 679 597 646 c 2
 554 604 l 1
 470 689 l 1
 512 731 l 2
EndSplineSet
Validated: 5
EndChar

StartChar: uni0884
Encoding: 2180 2180 43
Width: 1024
Flags: H
LayerCount: 2
Fore
SplineSet
128 819 m 1
 320 819 l 1
 320 435 l 1
 704 435 l 1
 704 819 l 1
 896 819 l 1
 896 398.5 l 1
 863.5546875 406.20703125 829.939453125 410.345703125 795.166992188 410.416992188 c 0
 655.56640625 410.025390625 531.314453125 344.833007812 450.916992188 243 c 2
 320 243 l 1
 320 -205 l 1
 128 -205 l 1
 128 819 l 1
730.147460938 -134.346679688 m 1
 730.147460938 144.9765625 l 1
 648.227539062 110.84375 l 1
 611.25 181.385742188 l 1
 769.969726562 260.4609375 l 1
 828.564453125 260.4609375 l 1
 828.564453125 -134.346679688 l 1
 730.147460938 -134.346679688 l 1
EndSplineSet
Validated: 1
EndChar

StartChar: uni0885
Encoding: 2181 2181 44
Width: 1024
Flags: H
LayerCount: 2
Fore
SplineSet
128 819 m 1
 320 819 l 1
 320 435 l 1
 704 435 l 1
 704 819 l 1
 896 819 l 1
 896 398.5 l 1
 863.5546875 406.20703125 829.939453125 410.345703125 795.166992188 410.416992188 c 0
 655.56640625 410.025390625 531.314453125 344.833007812 450.916992188 243 c 2
 320 243 l 1
 320 -205 l 1
 128 -205 l 1
 128 819 l 1
605.560546875 -134.346679688 m 1
 605.560546875 -64.943359375 l 2
 708.529296875 20.390625 771.67578125 79.5546875 771.67578125 128.478515625 c 0
 771.67578125 159.19921875 746.64453125 180.248046875 707.391601562 180.248046875 c 0
 678.947265625 180.248046875 647.658203125 168.870117188 615.80078125 146.68359375 c 1
 590.76953125 218.931640625 l 2
 628.885742188 250.220703125 675.534179688 266.149414062 726.734375 266.149414062 c 0
 816.048828125 266.149414062 874.076171875 217.793945312 874.076171875 143.838867188 c 0
 874.076171875 81.2607421875 832.546875 17.5458984375 748.920898438 -49.013671875 c 1
 884.315429688 -49.013671875 l 1
 884.315429688 -134.346679688 l 1
 605.560546875 -134.346679688 l 1
EndSplineSet
Validated: 1
EndChar

StartChar: uni0886
Encoding: 2182 2182 45
Width: 1024
Flags: H
LayerCount: 2
Fore
SplineSet
128 819 m 1
 320 819 l 1
 320 435 l 1
 704 435 l 1
 704 819 l 1
 896 819 l 1
 896 398.5 l 1
 863.5546875 406.20703125 829.939453125 410.345703125 795.166992188 410.416992188 c 0
 655.56640625 410.025390625 531.314453125 344.833007812 450.916992188 243 c 2
 320 243 l 1
 320 -205 l 1
 128 -205 l 1
 128 819 l 1
714.787109375 -140.036132812 m 0
 668.138671875 -140.036132812 631.729492188 -131.502929688 589.631835938 -111.591796875 c 2
 612.387695312 -34.7919921875 l 1
 645.3828125 -48.4453125 684.067382812 -55.8408203125 718.76953125 -55.8408203125 c 0
 763.711914062 -55.8408203125 788.7421875 -42.755859375 788.7421875 -19.431640625 c 0
 788.7421875 9.0126953125 751.764648438 27.7861328125 694.307617188 27.7861328125 c 2
 667.000976562 27.7861328125 l 1
 667.000976562 101.741210938 l 1
 694.307617188 101.741210938 l 2
 737.54296875 101.741210938 766.555664062 119.376953125 766.555664062 145.545898438 c 0
 766.555664062 168.30078125 743.80078125 181.954101562 708.529296875 181.954101562 c 0
 680.654296875 181.954101562 649.93359375 173.420898438 614.663085938 158.060546875 c 1
 592.4765625 231.447265625 l 2
 635.711914062 254.771484375 682.360351562 266.149414062 729.009765625 266.149414062 c 0
 816.618164062 266.149414062 868.956054688 226.327148438 868.956054688 160.336914062 c 0
 868.956054688 115.962890625 844.493164062 84.10546875 805.240234375 73.865234375 c 1
 857.578125 63.6259765625 891.142578125 26.0791015625 891.142578125 -23.9833984375 c 0
 891.142578125 -93.9560546875 821.168945312 -140.036132812 714.787109375 -140.036132812 c 0
EndSplineSet
Validated: 1
EndChar

StartChar: uni0887
Encoding: 2183 2183 46
Width: 1024
Flags: H
LayerCount: 2
Fore
SplineSet
128 819 m 1
 320 819 l 1
 320 435 l 1
 704 435 l 1
 704 819 l 1
 896 819 l 1
 896 398.5 l 1
 863.5546875 406.20703125 829.939453125 410.345703125 795.166992188 410.416992188 c 0
 655.56640625 410.025390625 531.314453125 344.833007812 450.916992188 243 c 2
 320 243 l 1
 320 -205 l 1
 128 -205 l 1
 128 819 l 1
750.911132812 -137.19140625 m 1
 750.911132812 -63.8046875 l 1
 570.004882812 -63.8046875 l 1
 570.004882812 -12.0361328125 l 1
 753.755859375 260.4609375 l 1
 847.053710938 260.4609375 l 1
 847.053710938 19.2529296875 l 1
 916.45703125 19.2529296875 l 1
 916.45703125 -63.8046875 l 1
 847.053710938 -63.8046875 l 1
 847.053710938 -137.19140625 l 1
 750.911132812 -137.19140625 l 1
668.422851562 20.390625 m 1
 750.911132812 19.8212890625 l 1
 750.911132812 150.665039062 l 1
 668.422851562 20.390625 l 1
EndSplineSet
Validated: 1
EndChar

StartChar: uni0888
Encoding: 2184 2184 47
Width: 1024
Flags: H
LayerCount: 2
Fore
SplineSet
233 384 m 0
 360 384 462 282 462 155 c 0
 462 28 360 -75 233 -75 c 0
 123 -75 30 3 8 107 c 1
 7 106 l 1
 6 115 l 2
 5 122 3 132 2 142 c 0
 1 156 -0 173 -0 192 c 0
 -0 205 0 218 1 232 c 0
 3 268 8 311 20 356 c 0
 27 378 35 401 44 424 c 0
 55 447 65 470 80 490 c 0
 93 512 110 531 127 550 c 0
 142 569 163 583 180 598 c 0
 198 613 218 622 236 633 c 0
 253 645 272 650 288 657 c 0
 305 663 320 670 333 673 c 0
 347 676 359 679 369 682 c 2
 399 689 l 1
 424 590 l 1
 400 580 l 1
 372 569 l 2
 361 565 351 558 339 551 c 0
 328 543 313 538 302 527 c 0
 291 517 277 509 267 496 c 0
 257 484 244 474 236 459 c 0
 227 445 218 431 213 416 c 0
 207 405 203 393 200 381 c 1
 210 383 221 384 233 384 c 0
794 384 m 2
 794 384 l 2
 921 384 1024 282 1024 155 c 0
 1024 28 921 -75 794 -75 c 0
 684 -75 592 3 570 107 c 1
 568 106 l 1
 567 115 l 2
 566 122 565 132 564 142 c 0
 563 158 562 179 562 204 c 0
 562 213 562 222 562 232 c 0
 565 268 570 311 582 356 c 0
 588 378 596 401 606 424 c 0
 617 447 627 470 642 490 c 0
 655 512 671 531 688 550 c 0
 704 569 724 583 742 598 c 0
 760 613 780 622 797 633 c 0
 815 645 834 650 850 657 c 0
 866 663 881 670 895 673 c 0
 908 676 920 679 930 682 c 2
 961 689 l 1
 985 590 l 1
 961 580 l 1
 934 569 l 2
 923 565 912 558 900 551 c 0
 889 543 875 538 864 527 c 0
 853 517 839 509 829 496 c 0
 819 484 806 474 798 459 c 0
 789 445 780 431 774 416 c 0
 768 405 765 393 761 381 c 1
 772 383 783 384 794 384 c 2
EndSplineSet
Validated: 5
EndChar

StartChar: uni0889
Encoding: 2185 2185 48
Width: 1024
Flags: H
LayerCount: 2
Fore
SplineSet
0 691 m 1
 128 691 l 1
 128 563 l 1
 0 563 l 1
 0 691 l 1
0 371 m 1
 128 371 l 1
 128 243 l 1
 0 243 l 1
 0 371 l 1
0 51 m 1
 128 51 l 1
 128 -77 l 1
 0 -77 l 1
 0 51 l 1
1024 563 m 1
 947 563 l 1
 257 563 l 1
 257 691 l 1
 1024 691 l 1
 1024 563 l 1
256 371 m 1
 1024 371 l 1
 1024 243 l 1
 256 243 l 1
 256 371 l 1
256 51 m 1
 1024 51 l 1
 1024 -77 l 1
 256 -77 l 1
 256 51 l 1
EndSplineSet
Validated: 1
EndChar

StartChar: uni083B
Encoding: 2107 2107 50
Width: 1024
Flags: H
LayerCount: 2
Fore
SplineSet
255.744140625 307 m 0
 255.744140625 448.36328125 370.739257812 563.358398438 512.102539062 563.358398438 c 0
 653.465820312 563.358398438 768.4609375 448.36328125 768.4609375 307 c 0
 768.4609375 165.63671875 653.465820312 50.6416015625 512.102539062 50.6416015625 c 0
 370.739257812 50.6416015625 255.744140625 165.63671875 255.744140625 307 c 0
460.799804688 -51.400390625 m 1
 563.200195312 -51.400390625 l 1
 563.200195312 -205 l 1
 460.799804688 -205 l 1
 460.799804688 -51.400390625 l 1
460.799804688 819 m 1
 563.200195312 819 l 1
 563.200195312 665.400390625 l 1
 460.799804688 665.400390625 l 1
 460.799804688 819 l 1
0 358.200195312 m 1
 153.599609375 358.200195312 l 1
 153.599609375 255.799804688 l 1
 0 255.799804688 l 1
 0 358.200195312 l 1
870.400390625 358.200195312 m 1
 1024 358.200195312 l 1
 1024 255.799804688 l 1
 870.400390625 255.799804688 l 1
 870.400390625 358.200195312 l 1
186.21484375 -91.2333984375 m 1
 113.817382812 -18.8369140625 l 1
 222.413085938 89.7587890625 l 1
 294.809570312 17.361328125 l 1
 186.21484375 -91.2333984375 l 1
729.190429688 596.586914062 m 1
 837.836914062 705.233398438 l 1
 910.233398438 632.836914062 l 1
 801.586914062 524.190429688 l 1
 729.190429688 596.586914062 l 1
222.413085938 524.139648438 m 1
 113.817382812 632.78515625 l 1
 186.265625 705.182617188 l 1
 294.809570312 596.536132812 l 1
 222.413085938 524.139648438 l 1
910.233398438 -18.8369140625 m 1
 837.836914062 -91.2333984375 l 1
 729.190429688 17.4130859375 l 1
 801.586914062 89.8095703125 l 1
 910.233398438 -18.8369140625 l 1
EndSplineSet
EndChar

StartChar: uni083D
Encoding: 2109 2109 51
Width: 1024
Flags: H
LayerCount: 2
Fore
SplineSet
780.220703125 462.498046875 m 0
 844.0234375 503.1640625 919.875976562 526.997070312 1001.07617188 526.997070312 c 0
 1008.76855469 526.997070312 1016.41113281 526.78515625 1024 526.368164062 c 2
 1024 526.368164062 1023.92773438 428.642578125 1024 428.856445312 c 1
 1017.0078125 429.30859375 1009.88378906 429.325195312 1002.77832031 429.325195312 c 0
 943.520507812 429.325195312 887.96484375 413.345703125 840.190429688 385.463867188 c 1
 933.801757812 254.310546875 978.657226562 119.256835938 908.936523438 49.0478515625 c 2
 908.936523438 49.0478515625 898.735351562 40.3232421875 898.697265625 40.2724609375 c 0
 893.236328125 33.490234375 886.037109375 28.25 877.732421875 25.158203125 c 2
 877.732421875 25.158203125 208.741210938 -196.723632812 208.801757812 -196.681640625 c 1
 193.493164062 -201.875 177.0625 -204.8046875 160.045898438 -204.969726562 c 0
 160.002929688 -204.969726562 160.005859375 -204.938476562 159.961914062 -204.938476562 c 0
 71.7001953125 -204.938476562 0.04296875 -133.28125 0.04296875 -45.0185546875 c 0
 0.04296875 -27.1298828125 2.986328125 -9.9228515625 8.416015625 6.142578125 c 2
 223.428710938 644.844726562 l 1
 232.205078125 670.685546875 l 1
 232.205078125 670.685546875 232.138671875 675.48828125 232.205078125 675.560546875 c 0
 237.256835938 686.286132812 244 695.950195312 252.1953125 704.327148438 c 0
 330.69140625 782.82421875 491.098632812 716.515625 637.366210938 599.014648438 c 0
 640.779296875 602.426757812 644.6796875 604.865234375 648.092773438 608.765625 c 0
 671.0078125 631.680664062 679.295898438 653.1328125 671.0078125 672.635742188 c 0
 654.153320312 701.8359375 622.688476562 721.401367188 586.579101562 721.401367188 c 0
 586.118164062 721.401367188 585.657226562 721.397460938 585.197265625 721.391601562 c 1
 585.197265625 721.391601562 585.006835938 819.076171875 585.197265625 818.903320312 c 0
 586.901367188 818.948242188 588.419921875 819.14453125 590.134765625 819.14453125 c 0
 665.939453125 819.14453125 731.469726562 774.802734375 762.180664062 710.665039062 c 0
 768.395507812 693.986328125 771.9296875 675.91015625 771.9296875 657.077148438 c 0
 771.9296875 610.469726562 751.124023438 568.682617188 718.30078125 540.506835938 c 2
 711.474609375 534.65625 l 1
 725.614257812 521.4921875 l 2
 744.62890625 502.477539062 762.668945312 482.487304688 780.220703125 462.498046875 c 0
180.5234375 -104.044921875 m 2
 180.5234375 -104.044921875 377.391601562 -39.5732421875 376.522460938 -38.7119140625 c 0
 287.237304688 10.7626953125 214.828125 84.802734375 167.359375 175.326171875 c 1
 167.359375 175.326171875 101.044921875 -24.56640625 101.051757812 -24.5732421875 c 0
 98.9951171875 -30.7861328125 97.8759765625 -37.4208984375 97.8759765625 -44.3193359375 c 0
 97.8759765625 -79.0322265625 126.057617188 -107.21484375 160.770507812 -107.21484375 c 0
 167.669921875 -107.21484375 174.310546875 -106.1015625 180.5234375 -104.044921875 c 2
521.814453125 9.5556640625 m 2
 667.594726562 59.287109375 l 1
 665.157226562 59.287109375 l 2
 648.092773438 68.0625 630.540039062 78.3017578125 612.98828125 89.0283203125 c 2
 597.874023438 98.779296875 l 2
 584.22265625 107.555664062 571.05859375 117.306640625 557.40625 127.057617188 c 2
 539.3671875 140.708984375 l 1
 501.336914062 171.42578125 l 1
 485.248046875 185.077148438 l 2
 469.645507812 202.62890625 455.01953125 214.818359375 436.4921875 233.833007812 c 0
 417.96484375 252.84765625 400.413085938 271.375 383.8359375 290.389648438 c 2
 369.696289062 307.454101562 l 2
 358.482421875 320.618164062 342.880859375 340.608398438 337.517578125 347.43359375 c 0
 332.154296875 354.259765625 331.666992188 355.72265625 322.890625 367.911132812 c 0
 314.115234375 380.100585938 302.901367188 396.189453125 298.025390625 403.502929688 c 0
 293.149414062 410.81640625 292.174804688 413.7421875 285.348632812 424.956054688 c 0
 278.5234375 436.169921875 271.697265625 447.383789062 266.333984375 458.109375 c 2
 263.408203125 462.498046875 l 1
 263.408203125 462.498046875 214.748046875 316.139648438 214.65234375 316.23046875 c 1
 254.458984375 166.881835938 372.373046875 49.1328125 521.814453125 9.5556640625 c 2
839.21484375 118.28125 m 2
 847.991210938 126.5703125 849.94140625 162.649414062 822.638671875 227.006835938 c 0
 811.192382812 251.581054688 797.94921875 275.255859375 783.146484375 297.703125 c 1
 781.724609375 288.75390625 780.986328125 279.915039062 780.986328125 270.568359375 c 0
 780.986328125 261.221679688 781.724609375 252.045898438 783.146484375 243.096679688 c 2
 783.146484375 243.096679688 685.8046875 224.103515625 685.634765625 224.08203125 c 0
 683.561523438 237.279296875 682.655273438 250.827148438 682.655273438 264.603515625 c 0
 682.655273438 310.012695312 694.349609375 352.711914062 714.887695312 389.8515625 c 0
 696.848632812 410.81640625 677.833007812 431.78125 657.356445312 452.258789062 c 2
 657.356445312 452.258789062 633.368164062 474.481445312 633.953125 474.686523438 c 1
 591.079101562 448.41015625 540.850585938 431.9140625 487.685546875 428.856445312 c 1
 487.685546875 428.856445312 488.046875 526.477539062 487.685546875 526.368164062 c 1
 510.661132812 528.372070312 532.8984375 534.3515625 553.018554688 543.432617188 c 1
 431.12890625 636.068359375 339.955078125 653.62109375 322.403320312 636.068359375 c 2
 322.403320312 636.068359375 317.040039062 621.055664062 317.040039062 620.954101562 c 0
 316.806640625 619.01953125 316.685546875 617.151367188 316.685546875 615.154296875 c 0
 316.685546875 613.157226562 316.806640625 611.1875 317.040039062 609.252929688 c 0
 316.91796875 607.126953125 316.85546875 605.159179688 316.85546875 603.001953125 c 0
 316.85546875 600.845703125 316.91796875 598.703125 317.040039062 596.576171875 c 0
 318.015625 591.701171875 318.990234375 586.825195312 320.453125 580.974609375 c 0
 321.916015625 575.124023438 322.403320312 571.7109375 324.353515625 565.860351562 c 0
 326.303710938 560.009765625 329.229492188 553.670898438 331.666992188 547.333007812 c 0
 333.595703125 541.36328125 335.909179688 535.424804688 338.493164062 529.78125 c 0
 341.41796875 522.955078125 345.318359375 516.6171875 348.731445312 510.278320312 c 0
 352.14453125 503.940429688 355.069335938 497.6015625 358.969726562 490.776367188 c 2
 373.109375 467.861328125 l 1
 385.786132812 447.383789062 l 2
 391.63671875 438.607421875 398.461914062 429.831054688 404.80078125 420.567382812 c 2
 418.939453125 401.065429688 l 1
 444.780273438 369.861328125 l 1
 458.919921875 352.796875 l 2
 473.05859375 336.708007812 488.661132812 320.618164062 505.23828125 304.041015625 c 0
 662.71875 146.072265625 802.6484375 99.75390625 836.290039062 118.28125 c 2
 839.21484375 118.28125 l 2
EndSplineSet
EndChar

StartChar: uni083C
Encoding: 2108 2108 52
Width: 1024
Flags: H
LayerCount: 2
Fore
SplineSet
516.982421875 311.982421875 m 0
 601.2265625 227.783203125 717.922851562 175.948242188 846.322265625 175.948242188 c 0
 909.23046875 175.948242188 969.241210938 188.455078125 1024 211.1171875 c 1
 1003.86914062 108.990234375 953.536132812 17.20703125 882.6015625 -53.533203125 c 0
 680.663085938 -255.419921875 353.353515625 -255.471679688 151.415039062 -53.533203125 c 0
 -50.4716796875 148.353515625 -50.4716796875 475.71484375 151.415039062 677.6015625 c 0
 222.16015625 748.553710938 313.96484375 798.890625 416.1171875 819 c 1
 393.44921875 764.23828125 380.669921875 703.854492188 380.669921875 640.940429688 c 0
 380.669921875 512.54296875 432.778320312 396.219726562 516.982421875 311.982421875 c 0
EndSplineSet
EndChar
